<?xml version="1.0" encoding="UTF-8" standalone="no"?>
<svg
   version="1.1"
   id="Layer_1"
   x="0px"
   y="0px"
   width="1024"
   viewBox="0 0 1024 1006"
   enable-background="new 0 0 1024 1024"
   xml:space="preserve"
   sodipodi:docname="forest.svg"
   inkscape:version="1.4.2 (ebf0e940, 2025-05-08)"
   height="1006"
   xmlns:inkscape="http://www.inkscape.org/namespaces/inkscape"
   xmlns:sodipodi="http://sodipodi.sourceforge.net/DTD/sodipodi-0.dtd"
   xmlns="http://www.w3.org/2000/svg"
   xmlns:svg="http://www.w3.org/2000/svg"><defs
   id="defs231" /><sodipodi:namedview
   id="namedview231"
   pagecolor="#ffffff"
   bordercolor="#000000"
   borderopacity="0.25"
   inkscape:showpageshadow="2"
   inkscape:pageopacity="0.0"
   inkscape:pagecheckerboard="0"
   inkscape:deskcolor="#d1d1d1"
   inkscape:zoom="0.58813114"
   inkscape:cx="430.17617"
   inkscape:cy="797.44119"
   inkscape:window-width="1512"
   inkscape:window-height="949"
   inkscape:window-x="0"
   inkscape:window-y="33"
   inkscape:window-maximized="0"
   inkscape:current-layer="Layer_1" />
<rect
   style="fill:#444f4d;fill-opacity:1;stroke-width:0.972497"
   id="rect231"
   width="1017.3938"
   height="315.70233"
   x="1.7605621"
   y="703.17163"
   ry="0" /><path
   fill="#FEEFDD"
   opacity="1"
   stroke="none"
   d="M 1,687 C 1,458.37289 1,229.74577 1,1.05933 c 341.23474,0 682.46948,0 1024,0 0,231.6353 0,463.33004 -0.3718,695.50207 -1.4365,0.0472 -2.5084,-0.36615 -3.565,-0.81567 -12.0841,-5.14154 -24.16598,-10.28852 -36.56296,-15.61798 -1.81115,-1.06916 -3.72223,-1.62568 -4.73138,-2.89783 -3.94763,-4.97614 -7.77039,-10.06958 -11.34442,-15.32025 -6.74396,-9.90753 -11.60779,-20.69171 -14.80109,-33.38996 1.64789,1.51099 2.56201,2.34919 3.58801,3.46186 0.45618,0.44439 0.80042,0.61425 1.08783,0.75256 -0.0568,-0.0316 0.0507,-0.10486 -0.009,0.26355 2.35596,1.88159 4.62311,4.11139 7.2392,4.65167 1.69628,0.35022 4.20434,-1.46185 5.70636,-2.95239 0.48901,-0.48529 -0.77704,-3.21619 -1.7453,-4.55493 -0.91657,-1.26734 -2.495,-2.05591 -3.98169,-3.14472 -0.41254,-0.30914 -0.52649,-0.57177 -0.56031,-1.22644 -0.99633,-1.82592 -1.97357,-3.30285 -2.9721,-5.07409 -0.34113,-0.75696 -0.66083,-1.21961 -1.01721,-2.03613 -1.01044,-2.12604 -1.98408,-3.8982 -2.96094,-6.02509 -0.67108,-1.77472 -1.33899,-3.19458 -2.00196,-5.03748 -1.73584,-9.5531 -3.49871,-18.67907 -5.20813,-27.815 -0.89678,-4.79242 -1.45013,-9.66882 -2.69976,-14.36328 -0.36744,-1.38043 -2.47632,-2.8468 -4.00507,-3.14081 -0.78467,-0.15088 -2.65533,2.04981 -2.98749,3.43842 -1.14496,4.78668 -1.71332,9.7077 -2.71362,14.53357 -1.71307,8.26458 -3.58624,16.49609 -5.66266,24.95733 -1.42108,3.41522 -2.57178,6.6145 -3.96448,9.97602 -0.41674,0.70636 -0.59137,1.25055 -1.06201,1.9552 -1.09741,1.73278 -1.8988,3.30511 -2.99438,5.0227 -0.70453,1.08624 -1.11481,2.02734 -1.54663,2.93573 -0.0214,-0.0327 0.0557,-0.0195 -0.21637,0.12323 -0.45179,0.5025 -0.63153,0.86224 -0.86188,1.46497 -0.22022,0.53088 -0.34558,0.83679 -0.34387,1.16931 0.0829,0.009 0.0459,-0.15393 -0.22327,-0.0157 -0.6958,1.46173 -4.52118,2.55829 -0.47192,4.43256 0.37457,0.0876 0.68231,-0.0812 0.97924,-0.26038 -0.0109,-0.0104 0.0106,0.0121 0.40503,0.006 4.39142,-1.57452 8.38855,-3.1427 12.97791,-4.9433 -2.20941,10.56244 -6.37158,20.06086 -12.57434,28.49604 -8.52222,-3.82733 -16.87464,-7.35315 -24.95624,-10.76471 1.21558,-1.03803 2.20551,-1.8833 3.55926,-2.77729 0.42713,-1.12701 0.95282,-2.55371 0.45753,-3.21118 -1.04114,-1.3822 -2.61829,-2.36053 -4.08857,-3.78216 -0.46209,-0.44507 -0.81109,-0.61261 -1.0719,-0.77429 0.0882,0.006 0.01,0.1643 -0.0528,-0.15424 -0.62354,-0.56732 -1.18482,-0.81604 -1.71375,-1.08026 0.0323,-0.0155 0.0155,0.0542 -0.10754,-0.18353 -0.42871,-0.40992 -0.73444,-0.5821 -0.97998,-0.76099 0.0602,-0.007 0.0493,0.11395 -0.0624,-0.14673 -0.43811,-0.43194 -0.76465,-0.60321 -1.01318,-0.7738 0.078,6.1e-4 0.0305,0.14923 -0.0173,-0.16053 -0.6264,-0.87036 -1.20489,-1.43084 -1.93145,-2.2843 -1.08045,-0.75818 -2.01282,-1.22332 -3.13184,-1.71191 -0.18658,-0.0234 -0.5622,-0.0435 -0.68671,-0.28247 -0.41528,-0.44049 -0.70605,-0.64197 -1.0141,-1.02185 -0.0173,-0.17841 -0.056,-0.53485 -0.14495,-0.77728 -0.34681,-0.46021 -0.60462,-0.67804 -0.99109,-1.12171 -0.42322,-0.39935 -0.71766,-0.57294 -0.96778,-0.75031 0.0444,-0.004 0.0362,0.0848 -0.0539,-0.15917 -0.34863,-0.46674 -0.60706,-0.68952 -1.00086,-1.13398 -0.43835,-0.38012 -0.74139,-0.53857 -1.24218,-0.7304 -0.1977,-0.0333 -0.56574,-0.19263 -0.57605,-0.37647 -0.0103,-0.18378 -0.0605,-0.54846 -0.0584,-0.91199 -1.08551,-1.44427 -2.17316,-2.52514 -3.18433,-3.62347 0.0764,-0.0175 0.0746,0.13928 -0.004,-0.12909 -0.36761,-0.48853 -0.6571,-0.70874 -0.90344,-0.92926 0.0431,-3.7e-4 0.0228,0.0835 0.0103,-0.24493 -0.47937,-0.60456 -0.94623,-0.88068 -1.47595,-1.22553 -0.0627,-0.0687 -0.10754,-0.24933 0.089,-0.61981 0.45752,-2.77008 -0.21985,-4.15662 -3.00885,-3.37952 -0.038,-0.0749 0.004,-0.23742 0.0541,-0.5791 -0.65119,-0.97815 -1.3523,-1.61462 -2.12763,-2.36383 -0.0742,-0.11273 0.0236,-0.36426 0.0721,-0.73138 -0.26502,-4.29444 -2.52118,-6.88508 -5.70002,-8.81409 0.0557,-0.0116 0.0405,0.10113 0.0862,-0.29126 -1.54389,-3.86621 -3.13343,-7.33991 -4.44416,-10.20447 5.39099,1.70062 10.69043,3.70068 16.16046,4.95941 2.73334,0.62903 6.28083,2.06885 8.34388,-2.00592 0.14099,-0.47455 0.34088,-0.63891 0.93054,-0.74707 0.63086,-0.47467 0.96356,-0.8941 1.29626,-1.31353 -0.55121,-0.11274 -1.10248,-0.22547 -1.84167,-0.50116 -0.53375,-0.49738 -0.87952,-0.83173 -1.2406,-1.11182 -0.0154,0.0543 0.0971,0.0626 -0.0148,-0.19666 -0.41504,-0.47039 -0.71814,-0.68158 -1.02784,-0.81213 -0.007,0.0807 0.15516,0.08 0.0447,-0.18359 -0.41815,-0.47858 -0.72583,-0.69367 -1.11999,-1.17041 -0.66065,-0.6952 -1.23474,-1.1286 -1.88904,-1.74512 -0.0802,-0.18311 -0.14423,-0.57782 -0.24426,-0.83167 -0.38385,-0.47131 -0.66755,-0.68878 -0.91224,-0.90979 0.0391,-0.003 0.0352,0.0749 -0.0738,-0.16504 -0.39349,-0.43664 -0.67798,-0.63323 -0.92407,-0.83142 0.0384,-0.002 0.0278,0.0743 -0.0622,-0.16021 -0.34308,-0.4444 -0.59614,-0.65418 -0.97828,-1.08747 -0.41681,-0.40393 -0.70465,-0.58441 -1.27587,-0.88366 -1.33814,-1.06397 -2.39277,-2.00922 -3.56855,-3.20191 -0.41949,-0.45447 -0.71802,-0.66131 -1.01159,-0.80127 0.005,0.067 0.13757,0.0466 0.0259,-0.20898 -0.41047,-0.46674 -0.70911,-0.6778 -1.00415,-0.81262 0.004,0.0763 0.1546,0.0528 0.0787,-0.15333 -0.0759,-0.20605 -0.15283,-0.63732 -0.17834,-0.9823 -1.10431,-1.42602 -2.18317,-2.50714 -3.18415,-3.60974 0.0779,-0.0215 0.0783,0.14014 0.005,-0.1325 -0.36762,-0.49121 -0.66181,-0.70978 -0.89893,-0.93366 0.057,-0.005 0.0455,0.10877 -0.0463,-0.14282 -0.36798,-0.46735 -0.6441,-0.68317 -0.88397,-0.90515 0.0363,-0.006 0.009,0.0622 -0.0172,-0.26245 -0.4881,-0.66486 -0.94995,-1.00507 -1.35242,-1.4397 0.0594,-0.0945 -0.11157,0.0489 0.011,-0.28613 -0.46954,-0.88983 -1.06171,-1.44464 -1.6214,-2.01203 0.0324,-0.0126 -0.003,0.0474 -0.0273,-0.2724 -0.43884,-0.74518 -0.85309,-1.17041 -1.18573,-1.61059 0.0817,-0.015 0.0639,0.15014 0.0159,-0.11914 -0.30646,-0.51221 -0.56494,-0.75519 -0.79517,-1.00635 0.0283,-0.008 -0.003,0.0415 4.9e-4,-0.32568 -0.79816,-1.37775 -1.6001,-2.38831 -2.34222,-3.49207 0.0598,-0.0931 3e-4,0.12006 0.0746,-0.22095 -0.36999,-0.67382 -0.81427,-1.00659 -1.29132,-1.41467 -0.0329,-0.0754 -0.008,-0.23798 0.0676,-0.49976 -0.17493,-0.50085 -0.42517,-0.73993 -0.62873,-0.98242 0.0466,-0.003 0.0244,0.0874 0.0602,-0.31238 -1.7622,-4.95544 -3.52783,-9.52465 -5.42016,-14.04077 -0.14868,-0.35486 -1.1803,-0.33978 -1.77564,-0.58313 0.0259,-0.0865 0.0264,0.094 0.14856,-0.26355 1.13977,-0.86706 2.15747,-1.37652 3.33106,-1.64062 0.69781,0.42096 1.23974,0.59662 1.96875,1.09155 1.81042,0.71008 3.43377,1.10095 5.04358,1.50415 -0.0135,0.0124 0.0107,-0.0298 0.0902,0.31592 4.367,4.46936 7.23962,4.53418 10.65509,0.25098 -0.17792,-1.1073 -0.42444,-1.88269 -0.70697,-2.61475 -0.0359,0.0434 0.0756,0.0595 -0.0164,-0.22424 -0.42902,-0.4751 -0.76599,-0.66645 -1.09094,-0.77088 0.0121,0.0869 0.17486,0.0213 0.0551,-0.24694 -0.47168,-0.34638 -0.82355,-0.42444 -1.49628,-0.61274 -3.80987,-4.63006 -7.29901,-9.1499 -10.79296,-14.04528 -2.85987,-6.29969 -5.68531,-12.23868 -8.61872,-18.12379 -0.27179,-0.54531 -1.22906,-0.74896 -1.90478,-1.16918 -0.0367,-0.0579 -0.11335,-0.17154 0.0706,-0.54291 0.15216,-0.85913 0.17859,-1.35895 0.08,-1.83277 -2.52985,-12.15802 -4.93939,-24.34384 -7.70667,-36.44781 -0.6986,-3.0553 -2.54748,-5.84763 -4.04455,-9.01062 -1.04779,-0.0777 -1.91889,0.0944 -3.0061,0.37006 -0.48133,0.30093 -0.66962,0.55514 -1.05494,1.13952 -3.46606,15.14099 -6.80816,29.97876 -9.79101,44.88843 -1.61841,8.08951 -4.4549,15.534 -9.02704,22.40826 -1.02802,1.54554 -1.04358,3.76441 -1.6499,5.66083 -0.12464,-0.0125 0.11676,-0.001 -0.23346,0.0469 -1.48365,1.72851 -2.61701,3.40875 -3.74732,5.01495 0.003,-0.0741 0.12983,0.003 -0.16223,0.0517 -0.40668,0.39544 -0.52124,0.74237 -0.64612,1.11523 -0.0102,0.0261 0.0343,0.0599 -0.31958,0.004 -2.18902,1.94074 -4.02411,3.9372 -5.88592,5.86475 -0.0267,-0.069 0.11883,-0.043 -0.17426,-4.3e-4 -0.48932,0.36597 -0.68548,0.68927 -0.89929,0.93573 -0.0176,-0.077 0.13855,-0.0546 -0.14514,0.009 -0.48969,0.3772 -0.6958,0.69043 -0.91449,0.9248 -0.0126,-0.0788 0.14673,-0.0667 -0.20831,0.0391 -0.83362,1.23237 -2.01435,2.9834 -1.66632,3.3747 1.33868,1.50488 3.12933,2.63635 4.87841,3.69769 0.15235,0.0924 1.23316,-1.34546 2.25684,-2.16907 5.69653,-2.33654 11.01898,-4.57659 17.39111,-7.25842 -2.88568,7.24414 -4.98395,13.92786 -8.13,20.07544 -4.66693,9.11926 -8.41968,18.86261 -15.8971,26.31867 -3.28436,3.27502 -6.48767,6.63128 -9.91211,9.64837 -0.89795,-0.72143 -1.5849,-1.19671 -2.3291,-1.55182 -29.36944,-14.01056 -57.12762,-30.79046 -84.1018,-48.91778 -25.68628,-17.26172 -48.61524,-37.83988 -70.82154,-59.24594 -11.36474,-10.95526 -23.46563,-20.59653 -38.28564,-26.608 -4.22748,-1.71482 -8.22748,-4.53489 -11.64563,-7.61069 -19.8067,-17.82318 -39.44562,-35.83371 -59.06366,-53.86527 -9.94409,-9.13986 -19.99524,-17.98785 -32.0679,-24.44476 -14.64185,-7.83099 -37.0676,-6.14642 -48.42371,7.73495 -1.66928,2.0405 -3.87234,3.65403 -5.87866,5.40766 -30.60367,26.74927 -61.12329,53.5957 -91.86234,80.18854 -16.86023,14.58599 -33.48578,29.55322 -51.31015,42.88748 -23.1828,17.34296 -47.7904,32.77038 -71.1779,49.85309 -40.21832,29.37628 -80.46062,58.66711 -124.005149,83.04449 C 63.662777,657.69806 33.45092,674.60364 1,687 Z"
   id="path1"
   style="fill:none" />
<path
   fill="#444f4d"
   opacity="1"
   stroke="none"
   d="m 922.99292,655.87207 c 6.03284,-8.73669 10.19501,-18.23511 12.40442,-28.79755 -4.58936,1.8006 -13.89916,5.58169 -13.94676,4.42654 0,0 -0.75762,-1.704 0.64036,-3.68416 1.54291,-2.38271 4.68862,-6.77584 4.91577,-7.08944 1.37357,-2.73621 4.05177,-7.6295 4.2049,-7.77738 1.24942,-3.05829 2.64557,-6.06109 3.93585,-9.21301 4.29221,-12.69043 5.75778,-27.55834 8.40546,-40.95825 2.82955,2.91693 3.94156,9.24636 4.45735,14.53241 0.86103,6.6662 1.59717,12.90338 2.71204,19.0722 0.40845,2.25952 2.37952,6.48852 2.35077,6.86127 0.82693,2.46722 0.72618,2.12699 1.01318,2.95776 0.75142,1.84577 1.68887,4.06903 2.06093,5.05222 1.08752,2.43988 8.60858,13.55149 12.25112,20.69308 0.44714,0.87647 1.22802,2.41046 0.94732,2.67243 -0.78698,0.73462 -2.22656,1.54608 -3.08764,1.28173 -4.98604,-1.26014 -8.94272,-3.99686 -12.63471,-7.38214 3.1933,12.69825 8.05713,23.48243 14.80109,33.38996 3.57403,5.25067 7.39679,10.34411 11.34442,15.32025 1.00915,1.27215 2.92023,1.82867 4.85529,3.22107 3.19549,5.25976 2.458,7.11365 -2.9375,6.30816 -5.90894,-0.88208 -11.58277,-3.33935 -17.51337,-5.23358 -0.23883,0.14795 -0.3233,0.41938 -0.32422,1.04267 1.43842,3.19531 2.6416,6.12347 4.17316,8.86828 8.82959,15.8241 17.47088,31.79975 32.88525,42.56818 0.9046,0.6319 1.8125,2.34735 1.562,3.23047 -0.2384,0.84051 -1.992,1.7561 -3.08129,1.7583 -3.62579,0.007 -7.32122,-0.0228 -10.86218,-0.70331 -5.11908,-0.98389 -10.12646,-2.54901 -16.38654,-4.18011 1.74622,2.65716 2.80542,4.26892 3.86261,5.88531 -0.002,0.005 0.005,0.003 0.0982,0.25684 0.33807,0.51562 0.5835,0.77752 0.87744,1.29443 0.35932,0.65759 0.67023,1.06018 1.07214,1.70429 0.36426,0.43835 0.63752,0.63519 0.89808,0.79754 -0.0127,-0.0345 -0.0563,0.0246 0.0177,0.32752 0.70587,1.10357 1.33758,1.90423 1.99884,2.67859 0.0295,-0.0263 -0.0494,-0.022 0.044,0.2445 0.36719,0.51807 0.64087,0.76959 1.10724,1.24384 0.98981,1.3092 1.80262,2.41919 2.69697,3.79779 0.89426,1.12044 0.72361,1.14057 1.29325,1.90918 0.91513,1.05656 0.34111,0.47259 0.88858,1.03253 0.88931,1.02958 0.32047,0.58719 0.93936,1.03509 0.39574,0.83821 2.09399,2.69713 3.04785,3.72767 3.18835,2.46491 9.23905,9.08838 12.54875,12.15426 1.2125,1.1232 2.0682,1.73606 2.1011,1.85476 0.1582,0.15298 9.3146,7.96322 9.3166,8.34859 -1.5125,1.73737 -2.9938,4.09167 -4.677,4.35265 -3.5582,0.55158 -7.278,0.0607 -11.26241,-0.20831 -6.9422,-1.88312 -13.55353,-3.56036 -20.69843,-5.37305 9.4173,18.43414 21.19098,33.86975 38.11924,44.97791 1.4928,0.97949 2.3765,2.99589 3.5399,4.47746 -1.5305,1.16052 -2.8172,3.15762 -4.6096,3.39536 -7.7046,1.50799 -15.50559,2.44877 -22.76884,3.60124 2.89386,5.03503 9.03814,10.63092 16.73254,15.26336 1.5736,0.94733 2.4535,3.047 3.6532,4.61548 -1.8277,0.86097 -3.6824,2.5188 -5.4789,2.45795 -15.72184,-0.53192 -30.70572,-3.64777 -43.5065,-13.63593 -2.30298,-1.79687 -4.73871,-3.42358 -6.97211,-5.02758 0,10.35315 0.0922,20.41473 -0.0439,30.47326 -0.057,4.2107 1.8097,5.74604 5.87885,6.26612 10.38006,1.32659 20.69568,3.15002 31.05395,4.65857 10.35161,1.50756 20.72381,2.87426 31.08701,4.30273 V 1024.9505 H 0.99513 c 0,-41.3717 0,-82.69098 0.292988,-124.5249 0.740817,-1.06683 1.188647,-1.61908 1.997738,-2.23572 0.849324,-0.0489 1.337386,-0.0335 2.135904,0.23621 4.70328,0.35656 9.098353,0.5686 13.487247,0.4787 1.014037,-0.0208 2.006922,-1.07453 3.401328,-1.72736 1.187475,-0.0621 1.983162,-0.0497 3.084333,0.22943 6.653582,0.3761 13.001623,0.49384 19.350172,0.53595 0.129913,8.6e-4 0.265656,-0.87817 0.777252,-1.49463 1.311512,-1.67071 2.993344,-3.16595 3.050537,-4.72082 0.279881,-7.60889 0.126839,-15.23371 0.126839,-22.95502 -5.581711,2.15631 -10.973907,4.94305 -16.704262,6.27386 -7.035995,1.63404 -14.337347,2.27961 -21.563832,2.82331 -1.661061,0.125 -3.484376,-1.90644 -5.232996,-2.9455 1.116179,-1.31067 2.145388,-2.71154 3.379033,-3.90027 0.82148,-0.7915 1.962105,-1.24127 2.912993,-1.91064 8.004501,-5.63501 13.898151,-13.00336 18.936534,-22.82056 -3.280427,1.14801 -5.397266,1.88886 -7.965106,2.65149 -3.788785,0.008 -7.126565,-0.005 -10.461213,0.0154 0.0031,0.0345 0.06978,0.0153 -0.0048,-0.20166 -0.299262,-0.4544 -0.574864,-0.56653 -1.178251,-0.70703 -0.531265,-0.48602 -0.785684,-0.81842 -1.091282,-1.35248 -0.236099,-0.41906 -0.463035,-0.5755 -0.659838,-0.9732 1.034515,-1.37024 1.996879,-2.43817 3.205073,-3.63928 0.429304,-0.443 0.612778,-0.75281 0.762715,-1.06678 -0.03354,-0.004 -0.01435,0.0607 0.255225,-0.004 0.43778,-0.37079 0.605983,-0.67676 0.742184,-0.99304 -0.032,-0.0104 -0.0061,0.0517 0.277212,0.0126 0.439027,-0.35833 0.594733,-0.67761 0.719145,-1.00915 -0.03129,-0.0124 -0.0058,0.0499 0.29929,0.0822 0.772638,-0.34167 1.240232,-0.71576 1.687372,-1.0993 -0.02046,-0.01 -0.01466,0.0351 0.214416,-0.0784 0.432911,-0.38123 0.636744,-0.64899 0.806122,-0.91895 -0.03446,-0.002 -0.02931,0.0666 0.199192,-0.0532 0.425522,-0.39636 0.622538,-0.67297 0.789036,-0.95318 -0.03052,-0.004 -0.02235,0.0573 0.211187,-0.056 0.435858,-0.3869 0.638184,-0.66047 0.804697,-0.93396 -0.03581,0 -0.02983,0.0713 0.216637,-0.0282 0.438143,-0.38904 0.62982,-0.67853 0.785923,-0.97009 -0.03558,-0.002 -0.03091,0.0689 0.218283,-0.0317 0.448459,-0.39075 0.647722,-0.68091 1.122801,-1.15644 4.75126,-5.31634 9.226707,-10.44732 13.959285,-15.7871 1.087162,-1.4972 1.917191,-2.78565 3.543778,-5.31061 -2.275753,1.15283 -3.125065,1.58307 -4.356926,2.08478 -2.434616,0.46014 -4.486677,0.84881 -6.912096,1.22558 -1.118649,0.0283 -1.863941,0.0684 -3.017477,0.0491 -2.227541,-0.22247 -4.046841,-0.38549 -6.032666,-0.84484 -2.334522,-2.60608 -0.830602,-4.07947 0.942935,-5.63086 4.008199,-3.50598 8.32669,-6.75782 11.819608,-10.72828 5.019936,-5.70623 9.417504,-11.95989 14.080731,-17.97992 -5.025967,-0.38049 -8.919552,0.46387 -12.852772,0.7367 -1.757242,0.12189 -3.594116,-0.90405 -5.394859,-1.409 0.764679,-1.69323 1.238782,-3.61078 2.343135,-5.04187 5.475918,-7.09649 11.264672,-13.95532 16.621151,-21.13806 1.838623,-2.46545 2.742894,-5.62768 4.13884,-8.61011 H 38.37817 c 0.698685,-1.51629 0.871964,-2.38452 1.386009,-2.93402 7.667713,-8.19549 11.346493,-18.29449 13.799076,-28.95038 1.64016,-7.12609 2.989247,-14.32013 4.702553,-21.42736 0.277783,-1.15229 1.774788,-2.01068 2.708206,-3.00495 0.678959,1.02545 1.756157,1.97559 1.966786,3.0896 0.833389,4.40772 1.365238,8.87158 2.063442,13.30597 2.257454,14.3374 6.048172,28.00092 16.855064,38.62976 0.700844,0.68933 0.871163,1.91815 1.288254,2.896 -0.241829,0.49719 -0.483658,0.99432 -0.725487,1.49145 -4.051567,-1.02624 -8.103134,-2.05255 -13.490829,-3.41729 4.932037,9.20196 9.407188,17.55151 14.596023,27.2326 7.708855,-12.00629 14.551156,-22.66296 21.586323,-33.62006 -5.303234,0.54804 -9.65929,0.99824 -14.015354,1.44837 -0.152641,-0.53296 -0.305283,-1.06586 -0.457924,-1.59882 3.962342,-4.81299 8.280144,-9.38281 11.786568,-14.50775 3.47606,-5.08044 6.13451,-10.72033 9.58326,-16.88678 -5.53561,1.19367 -9.58454,2.06683 -13.633484,2.93994 -0.254525,-0.59314 -0.509057,-1.18634 -0.763581,-1.77948 2.454405,-3.26031 5.044045,-6.42853 7.338695,-9.79773 7.88789,-11.58154 10.26072,-25.12597 13.52228,-38.35815 0.35985,-1.4599 1.38372,-2.7561 2.09962,-4.12824 0.81512,1.4198 2.01517,2.7486 2.4885,4.27442 2.74805,8.8584 5.25512,17.76324 7.95709,27.00165 1.33371,2.56634 2.61457,4.78344 3.94838,7.33471 2.07608,3.37403 4.19743,6.35517 6.06633,9.487 0.61109,1.02405 1.13136,2.77167 0.65689,3.58081 -0.44951,0.76661 -2.33738,1.17688 -3.45136,0.97272 -2.98602,-0.54718 -5.89633,-1.50751 -9.67947,-2.53198 6.01251,12.49567 12.43652,23.52057 23.79358,30.97546 -0.23166,0.43585 -0.46332,0.87177 -0.695,1.30768 h -16.07742 c 6.21572,12.85614 14.80266,24.33789 28.04628,33.13269 -8.76089,4.29169 -15.59707,0.84168 -22.61624,-0.84241 -0.20546,-0.14611 -0.31697,-0.17163 -0.42847,-0.1972 0.079,0.2005 0.15793,0.40094 0.28354,0.95642 5.53504,11.3009 12.00043,21.57141 21.30867,31.62457 7.27555,-10.08008 14.11399,-19.5545 21.1122,-29.14416 0.12292,-0.31824 0.0861,-0.52124 0.0492,-0.72425 -1.0282,0.58192 -3.96922,1.28573 -5.2648,1.33759 28.86795,-25.72273 42.29619,28.97608 45.61815,31.05956 -2.44366,-1.25582 -4.55606,-1.13042 -7.36806,-1.41228 -0.33354,0.36346 -0.66708,0.72693 -1.00063,1.09045 4.91912,7.70105 9.83825,15.40216 14.75736,23.10327 l 2.21216,-0.0939 c 4.63836,-7.50507 9.27675,-15.01013 14.22137,-23.01074 -4.29403,-0.31842 -7.42491,-0.55054 -11.23579,-0.83313 5.74495,-8.77765 10.90805,-16.66626 16.68641,-25.495 -4.83126,0.7287 -8.00683,1.20764 -11.18238,1.68659 -0.16291,-0.46295 -0.32582,-0.92591 -0.48873,-1.38886 7.20827,-7.15155 11.65627,-15.7243 13.72173,-25.56103 0.92161,-4.38916 1.9517,-8.7591 3.08369,-13.09839 0.36524,-1.40003 1.21286,-2.67432 1.83982,-4.0061 0.49905,0.0192 0.9981,0.0383 1.49716,0.0574 3.63928,16.74396 4.67029,34.61487 20.17667,46.23163 -0.3249,0.58356 -0.64982,1.16711 -0.97474,1.75061 -3.40902,-0.24079 -6.81808,-0.48157 -11.52307,-0.81391 6.47995,8.15015 12.38263,15.57422 19.27323,24.24085 -5.68027,-0.52509 -10.36341,-0.95801 -16.75715,-1.54907 7.11802,8.91681 13.46015,16.86163 20.30655,25.43823 h -16.23401 c 5.30454,6.86505 10.46274,13.54077 16.13279,20.8789 2.49493,-4.48419 4.33719,-7.7954 6.39209,-11.48876 -4.27207,0.61108 -7.68735,1.09954 -11.1026,1.58801 -0.23584,-0.47553 -0.47171,-0.95105 -0.70755,-1.42658 5.36755,-7.74316 10.7351,-15.48632 16.759,-24.17633 h -10.12482 c 10.81915,-10.86432 12.11515,-24.54089 16.76886,-37.23047 4.65897,12.58045 3.49527,27.24561 14.68527,37.08991 -0.1957,0.40295 -0.39138,0.80591 -0.58706,1.20886 -2.56418,-0.1499 -5.12836,-0.2998 -8.55258,-0.5 2.35089,4.60443 4.13259,9.07862 6.76565,12.97803 2.70535,4.00647 6.24204,7.45166 10.24182,12.10443 -4.64828,-0.30872 -8.3937,-0.55743 -12.1391,-0.80615 -0.37869,0.41308 -0.75741,0.82611 -1.13611,1.23919 5.51206,6.97535 11.0535,13.92792 16.50815,20.94782 0.94199,1.21234 1.51587,2.71075 2.25977,4.07696 -1.50745,0.47937 -3.01334,1.34882 -4.52271,1.35492 -2.93032,0.0118 -5.86264,-0.4613 -8.79412,-0.73345 -0.35999,0.39038 -0.71998,0.78082 -1.07996,1.17126 6.75552,7.31958 13.51102,14.63922 20.70731,22.43634 -8.59031,5.43829 -17.534,5.05279 -27.00828,2.0376 0,5.09997 -0.18557,9.58307 0.13447,14.02966 0.077,1.0705 1.83001,2.02033 3.26886,3.0802 14.74865,0.0331 29.04077,0.0115 43.695,0.0354 5.79328,0.3443 11.23654,1.01343 16.65204,0.83594 5.20474,-0.1706 10.36676,-1.37006 15.57227,-1.84851 11.42575,-1.0503 22.87753,-1.82868 34.28995,-2.99823 1.57342,-0.1612 4.05438,-1.7132 4.29342,-2.9682 1.43729,-7.54627 2.34268,-15.19385 3.58511,-23.92426 -1.97091,1.04944 -2.52703,1.33545 -3.07397,1.63819 -9.07648,5.02307 -18.76093,7.87225 -29.16077,7.10565 -2.47894,-0.18274 -4.81686,-2.27771 -7.21963,-3.49305 1.41876,-1.68615 2.58819,-3.70013 4.29959,-5.0014 7.29584,-5.54748 12.03635,-12.98651 16.56058,-20.39166 -4.54441,0 -8.66489,0.18591 -12.74881,-0.11841 -1.15882,-0.0863 -2.6182,-1.4126 -3.14176,-2.54065 -0.26428,-0.5694 1.15137,-2.06445 1.99997,-2.95819 0.67026,-0.70599 1.65399,-1.10577 2.46543,-1.68762 8.33358,-5.97662 14.50537,-13.74939 19.7875,-23.12818 -4.14944,0.93519 -7.48825,2.16394 -10.86767,2.28821 -2.4057,0.0885 -4.86606,-1.31006 -7.30204,-2.04498 1.30848,-1.75378 2.55704,-3.55731 3.95285,-5.23859 0.624,-0.75171 1.57874,-1.21856 2.32309,-1.88232 6.60315,-5.88812 11.48755,-12.98779 15.57972,-21.21576 -4.01035,0.3482 -7.28989,0.78052 -10.57581,0.83649 -1.1153,0.0189 -2.24676,-0.91175 -3.37082,-1.40845 0.53061,-0.96076 0.89591,-2.07611 1.62277,-2.85321 2.16083,-2.31018 4.68064,-4.31104 6.66605,-6.75318 4.10654,-5.05102 7.77545,-10.40307 9.70358,-17.0708 -4.27652,-0.3106 -7.70724,3.98365 -11.10187,0.43775 3.24643,-4.67414 7.09314,-8.64502 9.06482,-13.39429 3.55289,-8.55798 5.97574,-17.58453 8.8884,-26.40948 0.56784,-1.72046 1.21707,-3.41401 1.82877,-5.12 3.07437,8.01459 4.25955,16.17102 7.34713,23.52918 3.12104,7.43786 8.12659,14.08502 12.84577,21.98059 -4.02384,-0.23328 -7.67175,-0.44477 -11.74332,-0.68085 4.63141,10.67285 11.56207,19.47485 20.63941,27.23651 -2.87659,0.86194 -5.57462,1.38898 -8.17865,1.09198 -2.86783,-0.32709 -5.6493,-1.41138 -8.46842,-2.16583 -0.29175,0.31305 -0.58352,0.62604 -0.87527,0.93902 4.42022,6.27967 8.84045,12.55927 13.58795,19.3039 11.46695,-11.87689 21.10504,-23.83069 29.27615,-37.16962 -7.61392,1.8526 -14.48025,3.6853 -21.43423,5.08185 -1.431,0.28735 -3.18915,-1.05408 -4.79654,-1.64472 0.78747,-1.35119 1.36654,-2.8927 2.3974,-4.0216 5.37173,-5.88232 11.22241,-11.36695 16.1998,-17.55811 4.70205,-5.84875 8.5281,-12.40173 13.38253,-19.5982 -5.63269,1.23517 -9.7658,2.37408 -13.97598,2.94372 -1.55636,0.21051 -3.29394,-0.91858 -4.94891,-1.4367 0.68515,-1.42578 1.19198,-2.97565 2.0838,-4.25763 6.82971,-9.81769 13.75388,-19.56971 20.58441,-29.38678 0.65997,-0.94855 0.88388,-2.2005 1.41605,-3.58753 -5.05497,0.45508 -9.198,4.43927 -14.01075,1.664 0.17319,-0.92114 0.13593,-1.31463 0.31141,-1.54846 0.59503,-0.79303 1.2081,-1.58813 1.91565,-2.27862 8.10647,-7.91095 13.07559,-17.56977 15.72097,-28.47052 1.68586,-6.9466 3.0965,-13.95972 4.75208,-20.91407 0.3739,-1.57061 1.25275,-3.02099 1.89917,-4.52673 0.46649,0.04 0.93304,0.0801 1.39953,0.12024 0.65357,2.14569 1.48353,4.25519 1.93262,6.44287 3.53839,17.2359 7.55829,34.23169 20.83905,47.18262 0.66602,0.64954 1.14124,2.33032 0.76282,2.99243 -0.42304,0.7403 -1.97376,1.29871 -2.94312,1.18213 -3.7088,-0.44605 -7.38122,-1.19501 -11.0672,-1.83093 -0.41094,0.31122 -0.82183,0.62243 -1.23278,0.93365 7.27331,10.73505 14.54657,21.47009 22.46728,33.16071 7.65839,-8.07807 14.40674,-14.73297 20.60571,-21.86542 6.1438,-7.06903 11.06269,-15.00061 14.2768,-23.49152 -5.77948,0.79914 -11.1507,1.65717 -16.55341,2.20447 -1.28674,0.13031 -2.67865,-0.77808 -4.02221,-1.20868 0.66699,-1.20892 1.04718,-2.78076 2.04583,-3.57025 9.10395,-7.19696 15.29719,-16.62756 20.57746,-26.71588 2.01025,-3.8407 3.41778,-7.99695 5.66107,-13.34772 -6.56116,2.85083 -11.37958,6.31976 -17.40039,3.85285 0.27789,-0.95008 0.26343,-1.59357 0.57257,-1.85621 7.1413,-6.06768 11.23682,-14.13061 13.60937,-22.84307 3.96845,-14.57288 7.12952,-29.36463 10.78992,-44.02436 0.31494,-1.26153 1.81977,-2.22601 2.77185,-3.32855 0.8736,1.0816 2.28522,2.05737 2.5224,3.2641 0.79157,4.02612 1.2478,8.12598 1.67963,12.21368 1.94147,18.37836 8.29944,34.85779 20.70209,48.80207 1.24908,1.40429 2.17028,3.10022 3.63372,5.2279 -7.45623,2.31696 -12.94586,-1.06158 -19.55194,-3.93249 8.0857,17.72644 16.86194,33.67297 30.31873,47.11883 -2.79285,0.87415 -5.29889,1.53064 -7.52667,1.0058 -4.5047,-1.06134 -8.85852,-2.76367 -13.43036,-4.3374 -0.24176,0.14941 -0.32776,0.43451 -0.30945,1.05359 8.66907,16.68274 18.50934,31.97711 34.35797,42.42578 1.04749,0.69061 1.46637,2.33459 2.17761,3.53516 -1.13488,0.54632 -2.2738,1.56414 -3.40399,1.55462 -4.13562,-0.0349 -8.29779,-0.18817 -12.39294,-0.72888 -3.46454,-0.45758 -6.85016,-1.513 -11.78748,-2.6546 4.39783,6.70532 7.90711,12.05585 11.60925,17.70044 16.89209,-11.59619 30.93323,-24.95148 39.96875,-43.26764 -0.15777,-0.26514 -0.47473,-0.37201 -1.15936,-0.40668 -8.18884,3.14264 -16.20801,5.32843 -24.68329,4.20606 -1.90442,-0.25232 -3.62671,-1.88013 -5.43286,-2.8747 1.0708,-1.28448 1.93225,-2.85767 3.24451,-3.80914 14.52942,-10.53485 23.76166,-25.17407 32.06756,-40.49005 -4.91314,0.56506 -9.59906,1.27618 -14.30999,1.53765 -1.35736,0.0753 -2.78656,-1.14404 -4.1828,-1.76977 0.8786,-1.3089 1.5235,-2.88684 2.6723,-3.8844 10.09491,-8.76538 17.8988,-19.20624 23.25433,-31.44733 0.94031,-2.1491 1.47357,-4.47625 2.34815,-7.19824 -4.6236,1.92151 -8.35169,3.729 -12.25897,4.97449 -1.69043,0.53888 -3.75043,-0.082 -5.64264,-0.17603 0.63824,-1.71911 0.88867,-3.74859 1.97656,-5.10785 8.13928,-10.16937 13.9472,-21.43457 16.7608,-34.19464 1.71637,-7.78363 3.35187,-15.58801 5.27136,-23.32153 0.3772,-1.51965 1.88977,-2.75751 2.87873,-4.1253 0.95892,1.20324 2.26849,2.27093 2.79828,3.64025 0.89239,2.30683 1.40344,4.78308 1.87774,7.22632 3.70386,19.07947 8.99176,37.52014 20.95862,53.36328 0.80786,1.06958 1.05914,2.55945 1.76868,4.35987 -7.35315,1.44275 -11.06677,-3.96576 -16.47754,-6.97437 0.35052,1.59119 0.44513,2.54511 0.7691,3.41339 5.91754,15.86011 13.23889,30.88324 25.42218,43.06561 1.18622,1.1861 1.75678,2.98798 2.61304,4.50403 -1.73755,0.73584 -3.6908,2.39173 -5.17426,2.04395 -5.57165,-1.30609 -10.99005,-3.26599 -16.63922,-5.14917 -0.29059,0.17578 -0.40777,0.51977 -0.42096,1.20618 5.76923,12.8551 12.93512,24.38806 22.19348,34.59631 2.22388,2.45196 4.10242,3.16589 7.20032,1.1123 17.79615,-11.79736 33.22638,-26.07373 45.953,-43.22149 1.97565,-2.66199 3.49054,-5.66596 5.21845,-8.51178 -1.54022,-0.33655 -2.12866,-0.0648 -2.69641,0.24475 -5.23962,2.85711 -10.43091,5.80926 -15.75507,8.49866 -0.9273,0.46832 -2.41015,-0.16321 -3.63647,-0.28675 0.28839,-1.21234 0.3211,-2.57312 0.92022,-3.60504 1.12989,-1.94623 3.52531,-1.35458 5.57127,-4.1987 -2.46576,0.64282 -4.60374,0.42742 -5.82719,0.67717 -6.29113,1.28418 -12.5523,1.07658 -18.90747,1.84715 -1.79003,0.21711 -3.86224,-1.89361 -5.80505,-2.9367 1.04529,-1.54871 1.84247,-3.36512 3.17688,-4.60187 7.56085,-7.00745 15.52618,-13.59869 22.82672,-20.86157 9.28784,-9.23999 16.39935,-20.09412 21.15247,-32.36029 0.56921,-1.46894 0.0774,-3.34913 0.0774,-5.25971 -9.61462,4.91107 -17.90399,10.414 -28.21668,10.12006 -1.72027,-0.049 -3.40625,-1.30078 -5.10803,-1.99677 0.91346,-1.61548 1.55609,-3.48657 2.79291,-4.79681 3.25043,-3.44342 6.75958,-6.64264 10.16559,-9.93927 3.24017,-3.31934 6.44348,-6.6756 9.72784,-9.95062 7.47742,-7.45606 11.23017,-17.19941 15.8971,-26.31867 3.14605,-6.14758 5.24432,-12.8313 8.13,-20.07544 -6.37213,2.68183 -11.69458,4.92188 -17.77337,7.21625 -4.08997,-0.0293 -6.75953,-0.63873 -4.73163,-4.96692 0,0 -0.1593,-0.0121 0.11181,-0.0368 0.37042,-0.23357 1.79785,-1.60096 1.99347,-1.80882 0,-0.0476 0.13579,0.18698 6.12097,-5.76599 0,-6e-5 -0.0445,-0.0339 0.16565,-0.20978 0.38617,-0.45526 0.5622,-0.73462 0.73823,-1.01398 1.37209,-1.58407 2.83417,-3.486 4.0902,-5.29101 7.79944,-9.72949 11.26594,-20.88159 13.72596,-32.46588 1.60083,-7.53843 3.31475,-15.05283 5.32171,-22.68433 1.53186,-5.07285 2.71991,-10.03937 3.90607,-14.99811 0.8797,0.41324 1.60614,0.75452 2.44977,1.50171 0.84613,4.71491 1.27282,9.1023 2.3656,13.31705 2.49615,9.62857 5.3183,19.17267 8.00805,28.7511 -6e-5,0 0.0766,0.11364 0.27619,0.48687 3.05774,6.98401 4.76538,14.21097 10.36548,19.35312 3.83691,4.65019 8.16461,11.38077 12.29168,14.83686 0.40705,0.39605 0.7638,0.57165 1.12055,0.74725 0,0 -0.11151,-0.0161 -0.20282,0.24243 -2.10248,0.52997 -4.11255,1.00482 -6.12525,1.01605 -2.04266,0.0114 -6.1224,-0.75969 -6.1829,-1.14477 -1.69159,-0.88806 -3.32306,-1.39105 -4.90716,-1.90991 0.0473,-0.0158 0.0674,0.082 -0.0534,-0.21973 -0.74011,-0.46124 -1.35937,-0.62067 -1.93609,-0.7876 0.0425,-0.007 0.0453,0.0789 0.005,-0.18408 -0.66767,-0.4649 -1.29541,-0.66693 -2.2547,-0.7616 0.13812,1.78491 0.60779,3.46247 1.07745,5.14002 6e-5,0 -4.9e-4,-0.18048 0.0575,0.27514 3.29109,5.71333 5.69356,12.4315 8.83,17.805 3.9981,7.08824 12.92362,18.61271 14.53288,19.63627 1.05468,0.94519 2.10931,1.89044 3.49939,3.15033 4.05146,4.50126 2.09692,2.31595 8.52291,8.84387 0,0 -0.11248,-0.008 -0.17413,0.35077 -1.0769,1.12805 -2.01428,2.38666 -3.12396,2.56323 -2.25574,0.35895 -4.60443,0.13336 -7.30927,0.14704 -5.61474,-2.01911 -10.83508,-4.03644 -16.05536,-6.05384 -0.25396,0.31891 -0.50793,0.63776 -0.7619,0.95661 2.62581,4.51061 5.71108,9.03246 8.11015,13.55352 1.73816,3.21354 4.14732,6.18526 5.71997,9.39917 0.63471,0.93539 0.99069,1.63639 2.06861,2.96424 0.96227,1.33268 2.02067,2.6022 2.91723,3.97143 0.9525,1.25981 1.61492,2.64271 2.54893,3.93568 0.0678,0.1007 2.34331,2.97838 3.95481,4.24374 -0.0605,4.2e-4 -0.0542,-0.12036 0.0555,0.13067 3.46537,2.85584 6.71602,6.42205 10.68694,9.20246 0.7094,0.6159 1.36121,1.25233 2.14805,1.77002 1.08943,0.61647 2.08276,1.50462 2.93603,2.23211 1.35718,1.14411 2.93433,2.12244 3.97547,3.50464 0.49529,0.65747 -0.0304,2.08417 -0.87452,3.17585 -4.15857,0.18402 -7.88787,1.36505 -10.84802,0.3352 -8.80292,-3.06219 -17.44282,-6.92413 -26.23958,-10.70074 -0.41918,-0.16626 -0.52061,-0.21766 -0.76164,-0.19934 0.12738,0.31298 0.39424,0.48649 0.56306,1.15971 13.25867,25.89532 29.41857,48.90242 54.93456,64.60365 2.7569,-5.89007 5.27307,-11.26569 7.99042,-17.07129 -6.15259,1.11457 -11.01209,2.11585 -15.91657,2.78967 -1.08801,0.14948 -3.07751,-0.61199 -3.33258,-1.38781 -0.37469,-1.13965 0.20648,-2.78449 0.81116,-3.99988 0.57281,-1.15149 1.83166,-1.93964 2.56262,-3.03815 4.11133,-6.17889 8.15424,-12.40332 12.22046,-18.61218 M 780.70831,869.66486 c 8.26636,0.10858 16.5326,0.25482 24.79907,0.26776 0.8263,10e-4 1.65381,-0.80664 2.80311,-1.95209 0.67163,-6.357 1.34326,-12.71399 2.73455,-19.29999 0.31653,-1.53912 0.89209,-3.0758 0.90692,-4.61786 0.0889,-9.23553 0.10242,-18.47284 0.015,-27.70837 -0.0228,-2.4054 -0.49524,-4.80658 -1.14941,-7.63336 -9.50599,7.28576 -19.55701,13.58551 -32.28406,16.71704 1.79309,1.04022 2.65558,1.30517 3.1637,1.88232 1.20977,1.37409 2.25201,2.89563 3.36193,4.35767 -1.43048,0.96441 -2.74511,2.42328 -4.31537,2.7912 -3.36871,0.7893 -6.90045,1.55414 -10.30914,1.3565 -6.37121,-0.36926 -12.70227,-1.43097 -19.05005,-2.20452 3.81665,4.55975 8.38959,8.29016 12.69483,12.30749 1.53027,1.42792 2.40997,3.55304 3.58661,5.35986 -2.00861,0.95276 -3.95813,2.55616 -6.03614,2.74481 -8.63733,0.78406 -16.94116,-0.97204 -24.5827,-5.01507 -5.65649,-2.99255 -11.00311,-6.57092 -17.63946,-10.5849 0.68225,10.37817 1.25903,19.75055 1.93475,29.11584 0.24402,3.38184 2.91083,4.45581 5.58349,4.31952 3.72553,-0.19006 7.41248,-1.13409 11.29731,-1.00775 1.17614,0.37689 2.36096,1.10437 3.52704,1.0755 9.73303,-0.24054 19.46502,-0.56952 29.19006,-1.02667 1.13055,-0.0531 2.21686,-1.04858 4.00525,-1.76282 1.71332,-10e-4 3.42669,-0.003 5.76269,0.51789 m 101.31281,-105.3263 -0.73792,0.18054 c 0.17261,0.22144 0.34528,0.44294 0.83057,1.26697 3.29401,4.53461 6.58801,9.06916 10.34027,14.23462 2.2926,-3.41479 4.09271,-6.09601 6.27118,-9.34076 -5.88684,-2.17273 -11.13342,-4.10913 -16.7041,-6.34137 m -26.40991,106.28101 c 3.60064,0.45874 7.18902,1.09637 10.80413,1.34259 10.9021,0.74249 21.80866,1.48456 32.72577,1.91015 4.56952,0.17811 9.17017,-0.44104 14.54413,-0.81286 2.06183,0.15881 4.1236,0.31756 7.09491,0.70593 12.01209,0.64447 10.78497,1.87933 11.33777,-9.84277 0.0704,-1.49176 0.43884,-2.97363 0.45837,-4.46283 0.0615,-4.69208 0.0227,-9.3855 0.0227,-13.18146 -9.47247,3.94769 -18.73432,8.49188 -28.4574,11.58722 -5.31384,1.69171 -11.40753,1.11114 -17.15131,1.13519 -1.24163,0.005 -3.16717,-1.60138 -3.51183,-2.82287 -0.25275,-0.89569 1.40679,-2.54285 2.49139,-3.55927 2.13361,-1.99933 4.46008,-3.79285 6.70672,-5.67151 -10.1723,0.83008 -19.74951,2.39716 -29.03369,-1.71393 -1.77118,-0.7843 -3.09662,-2.57525 -4.62768,-3.90179 1.48547,-1.1543 2.86749,-2.48425 4.47516,-3.43103 5.56756,-3.2785 11.21356,-6.42365 16.78021,-9.59137 -10.6568,-5.46393 -20.297,-10.40668 -30.60138,-15.68994 1.21625,16.79114 2.43616,33.63275 3.6394,51.21155 0.5824,2.0877 1.16486,4.17547 2.30262,6.789 m -558.33628,25.5321 c -4.2258,0.63544 -8.4357,1.50513 -12.68506,1.79346 -1.75235,0.11896 -3.58941,-1.01117 -5.38794,-1.57324 0.72043,-1.69226 1.44089,-3.38446 2.29364,-5.38739 -4.2771,-2.05371 -8.97897,-4.31128 -13.39004,-6.42932 0,6.76757 0.0127,13.54144 -0.007,20.31524 -0.007,2.4776 0.64941,4.08081 3.63061,4.14264 5.80036,0.12012 11.595,0.51764 18.29624,0.88086 h 10.69381 v -15.03284 c -1.22155,0.56037 -1.9421,0.89093 -3.44461,1.29059 M 537.93488,746.44196 c -0.0988,0.30035 -0.19751,0.6007 -0.12128,1.58355 5.52289,8.78375 11.04577,17.56751 16.88922,26.86103 10.87225,-10.4101 18.38,-21.22126 24.26636,-33.20325 -8.33777,1.13702 -16.12281,2.19867 -23.8078,3.24664 0.42688,0.83557 1.1217,2.19562 1.99585,3.90668 -7.0929,3.09949 -13.02796,0.65362 -19.22235,-2.39465 M 72.682037,896.64935 c 5.479332,0.12055 10.960717,0.39185 16.437378,0.3169 4.925064,-0.0674 9.844925,-0.51477 15.579565,-0.89917 0.95216,-0.91693 2.66072,-1.7735 2.73941,-2.7602 0.78449,-9.8352 1.30019,-19.69183 1.90959,-29.83911 -6.61273,2.79609 -12.424449,5.25354 -19.293773,8.15815 3.089325,1.49774 5.460731,2.52453 7.704391,3.77966 1.436753,0.80359 2.684952,1.94421 4.017672,2.93377 -1.51289,1.1659 -2.857889,2.85346 -4.568773,3.404 -6.183205,1.98962 -12.135895,0.5083 -17.828164,-2.11652 -3.235443,-1.49188 -6.344802,-3.2572 -10.693099,-5.51257 0.457473,6.59149 0.692337,11.99292 1.289955,17.35394 0.178703,1.60303 1.371658,3.0929 2.705848,5.18115 m 419.069523,3.26258 c 5.23581,-0.84088 10.49151,-1.58008 15.69305,-2.5965 1.24872,-0.24396 3.22409,-1.29907 3.32907,-2.16699 1.07663,-8.89862 1.83643,-17.83551 2.71594,-27.09125 -10.61303,3.70502 -20.05206,7.00018 -29.42501,10.27234 -0.15085,-0.3067 -0.0773,0.0615 0.14648,0.26208 1.35828,1.21747 2.76541,2.38031 4.12878,3.59235 2.76853,2.46106 2.48325,4.57281 -1.00592,5.80353 -1.83844,0.64856 -3.88388,0.85229 -5.85263,0.96557 -10.12985,0.58289 -19.75378,-1.21899 -29.38485,-7.31475 0.31833,5.84838 0.63433,10.71692 0.83685,15.59021 0.31021,7.46649 0.84604,7.87768 9.20834,5.99401 9.5875,-1.12164 19.17496,-2.24328 29.6099,-3.3106 m 98.14053,-24.61304 c 0.11267,-0.79016 0.22534,-1.58026 1.07983,-2.57941 0.0698,-8.86542 0.13965,-17.73083 0.11151,-27.35785 -0.10253,-1.23376 -0.20501,-2.46753 -0.2597,-3.12609 -8.67511,4.17083 -17.22913,8.28344 -26.51379,12.74731 4.8753,3.28137 10.04571,6.68249 15.11432,10.22913 1.23693,0.86547 2.14013,2.20782 3.19671,3.33081 -1.24139,1.01245 -2.39612,2.74548 -3.73974,2.90692 -4.65857,0.56006 -9.38282,0.57391 -14.08204,0.79559 -1.67321,1.67175 -3.88153,3.64276 -5.94934,3.50501 -4.89843,-0.32636 -9.87481,-1.20417 -14.54644,-2.70801 -4.31061,-1.38752 -8.2652,-3.88105 -12.32465,-5.86206 v 26.17572 c 14.63617,-2.32007 28.37439,-4.49781 42.90027,-6.67615 4.54108,-0.70606 9.08209,-1.41205 13.87756,-2.15759 0.33795,-2.92426 0.65674,-5.68244 1.1355,-9.22333 m 107.23682,-32.34418 v -4.28113 c -15.53931,14.70234 -32.48047,15.67011 -51.56507,7.59742 1.31726,1.43188 2.37219,2.22424 2.93817,3.27899 0.79895,1.48877 1.23627,3.17169 1.82825,4.7716 -1.59021,0.55127 -3.39099,1.88245 -4.73437,1.51972 -6.0445,-1.6322 -12.09839,-3.409 -17.87293,-5.80005 -4.00958,-1.66028 -7.57049,-4.40405 -12.24872,-7.2146 0.92817,11.93262 1.76929,22.85864 2.63245,33.78302 0.31262,3.9566 2.98266,3.54126 5.80286,3.23175 18.48993,-2.02942 36.98614,-4.00134 55.48474,-5.94977 5.07391,-0.53436 10.16296,-0.92468 15.56695,-1.41003 0.73651,-9.76953 1.44794,-19.20728 2.16767,-29.52692 m -565.23766,52.51282 c 1.03345,0.61163 2.01518,1.62323 3.10942,1.76477 4.43894,0.57403 8.90939,0.9184 13.37376,1.27856 10.92673,0.88141 21.8505,1.82978 32.7923,2.45704 1.45539,0.0834 4.19863,-1.39405 4.32356,-2.39985 0.80962,-6.51745 1.05884,-13.10449 1.53801,-20.3714 -2.92523,1.37079 -5.06274,2.70783 -7.39198,3.39734 -5.68194,1.68207 -11.40225,3.33722 -17.21655,4.41034 -1.88498,0.34797 -4.10973,-1.14483 -6.17908,-1.79571 1.06787,-1.71973 1.92258,-3.63709 3.2737,-5.09406 1.01079,-1.09008 2.66157,-1.58667 4.0274,-2.34753 -6.70967,-0.315 -12.12558,0.17737 -17.54277,0.19165 -1.95533,0.005 -3.91371,-1.13647 -5.87068,-1.75482 0.6292,-1.87201 1.25841,-3.74402 1.98296,-5.89972 -3.21512,-1.05316 -6.9131,-2.26441 -10.40662,-3.40875 0,9.591 0,19.15667 0.18657,29.57214 m 91.5576,-6.33929 c -2.30928,-0.65052 -4.61856,-1.30103 -6.92785,-1.95148 0.45445,-1.3327 0.9089,-2.66547 1.34899,-3.95606 -4.26147,-2.08703 -8.67674,-4.24939 -12.98513,-6.35943 0,7.53363 0.0642,15.09185 -0.0306,22.64807 -0.0397,3.16241 1.24483,4.3114 4.4316,4.49512 6.9628,0.40142 13.89546,1.29681 20.85164,1.84948 7.03093,0.5586 14.07537,0.94702 21.35063,1.42554 v -18.66986 c -1.14374,0.0598 -1.80138,-0.008 -2.40523,0.14105 -8.23567,2.03681 -16.4487,5.06775 -25.63402,0.37757 M 898.01269,722.56061 c 5.49122,-6.12506 10.98237,-12.25012 17.51105,-19.53247 -19.08484,-1.65912 -35.57904,-6.33857 -50.66119,-15.63507 8.0401,13.99438 15.42456,28.23388 26.78351,40.25048 2.22314,-1.75915 4.02581,-3.1856 6.36663,-5.08294 m -147.05255,29.97674 c 1.8559,2.1062 3.7118,4.21234 5.93457,6.73487 12.78186,-8.37885 23.63477,-18.14148 30.58521,-31.96302 -7.86853,2.61432 -15.36231,5.84491 -22.94598,8.8487 -1.42823,0.56567 -3.35578,0.68072 -4.81147,0.22778 -6.50134,-2.02356 -12.91949,-4.31543 -19.35779,-6.53912 -1.8731,-0.64691 -3.71343,-1.38886 -5.56878,-2.08722 -0.31659,0.43164 -0.63312,0.86328 -0.94965,1.29492 5.54883,7.6499 11.09772,15.2998 17.11389,23.48309 m -600.71133,64.6836 c 2.94908,3.47149 5.89816,6.94299 9.55969,11.25311 6.9182,-8.43012 13.12401,-15.99213 19.32982,-23.55414 -0.30051,-0.30334 -0.60101,-0.60663 -0.90152,-0.90991 -3.16138,0.78473 -6.32274,1.5694 -9.72948,2.41498 0.88242,1.0877 1.65032,2.03424 3.10768,3.83075 -10.10415,1.9013 -18.52813,-2.02564 -28.04272,-4.15759 2.41113,4.02349 4.35541,7.26788 6.67653,11.1228 M 87.299782,773.14703 c 1.543663,1.86976 3.087318,3.73951 5.693794,6.89661 -3.665848,0 -6.249588,0.27423 -8.746292,-0.0745 -2.683312,-0.37494 -5.284889,-1.33478 -7.922127,-2.03943 -0.299553,0.3294 -0.599106,0.65881 -0.898659,0.98816 2.984169,5.33319 5.968346,10.66632 9.417092,16.82977 6.929397,-9.17395 13.205566,-17.48309 19.48174,-25.79224 -0.32277,-0.36139 -0.64555,-0.72284 -0.96833,-1.08429 -5.281034,1.19477 -10.56207,2.38947 -16.057218,4.27594 m 402.304528,56.93109 c 1.14722,-1.807 2.29443,-3.61401 3.9487,-6.21978 -5.60166,1.4635 -9.99646,2.61169 -14.59928,3.81415 1.09354,1.57977 1.9419,2.80541 2.79026,4.031 -0.15787,0.53217 -0.31577,1.06433 -0.47366,1.59656 -6.16111,-0.63049 -12.32224,-1.26105 -19.48462,-1.99402 4.35519,5.73084 8.20349,10.79474 12.44635,16.37775 5.34024,-6.08545 10.14248,-11.55774 15.37225,-17.60566 m 80.17908,-36.72595 c 0.29077,-0.96448 0.58154,-1.92895 0.97332,-3.22845 -6.69409,2.04748 -12.80828,3.91754 -19.79382,6.05414 2.93719,4.45098 5.51099,8.35131 8.84015,13.39624 3.61352,-5.85999 6.6142,-10.7262 9.98035,-16.22193 m 96.07843,-12.9563 c 3.02899,-4.82959 6.05798,-9.65918 9.32952,-14.87555 -7.82525,1.65302 -14.82897,3.13251 -23.03356,4.86567 4.7785,3.79895 8.95611,7.12017 13.70404,10.00988 m -443.61911,62.8064 c 2.26236,2.60822 4.52473,5.21649 7.22335,8.3277 3.49212,-4.10706 6.62449,-7.79102 9.98217,-11.73993 -7.30727,-0.82276 -13.69663,-1.54212 -20.7706,-2.33862 1.28709,2.09625 2.22546,3.62451 3.56508,5.75085 m 427.87533,-44.56268 c 2.49036,-2.29505 4.98071,-4.59009 8.13544,-7.49738 -7.27179,-1.12292 -13.44379,-2.07599 -20.784,-3.20947 2.9654,4.34125 5.38696,7.64856 7.54346,11.12042 1.65222,2.65997 3.03149,1.71985 5.1051,-0.41357 m 258.26465,-55.9126 c 1.88385,-2.52972 3.7677,-5.05939 6.48145,-8.70349 -5.12323,1.64569 -8.76984,2.81708 -13.11811,4.21387 2.34015,1.74774 4.14343,3.09442 6.63666,4.48962 M 757.65454,788.2652 c -3.48914,0.37884 -6.97833,0.75769 -11.44263,1.24243 1.89661,2.31879 3.1637,3.86792 4.77887,5.84259 2.51209,-2.36127 4.63105,-4.35297 6.66376,-7.08502 m -275.24588,79.63946 c 1.15192,-1.25799 2.30386,-2.51593 4.26599,-4.65869 -4.86529,1.36029 -8.40085,2.34882 -12.32379,3.44562 1.49298,1.93896 2.74442,3.56421 4.16287,5.40643 1.40155,-1.51587 2.40866,-2.6051 3.89493,-4.19336 M 160.21605,847.11133 c -1.59123,-0.19324 -3.18248,-0.38642 -5.7562,-0.69898 1.75322,2.59558 3.05707,4.52588 4.62429,6.84613 1.85936,-1.77081 3.34102,-3.18194 5.11399,-4.87048 -1.43887,-0.51526 -2.34562,-0.83996 -3.98208,-1.27667 z"
   id="path2"
   sodipodi:nodetypes="cccccccccscccssscsscsccssssscccccccccccccccsccsccscccsccscsssccccccsccscscsscsccccccccccccccccccccccccccccccccsscsccscccsscssscccccccscccsscsccsssccccccccccccccccccccccsscccccccccccccccccccscccscsccccsccssssccscscsssccscsscscssccsscscccsccccsccscscssccssssccsssscccscscsscccssccsscccsccscssccccscscsccscscssscsssccsscsccscscsscscsscssscscscssccccsscccsccccscccccsccccccsccccccscccccccccccccscccccccssssccsccssccscsscscsscssccscccccccccssccsscsssscscccccccscccssccccccccccccscsccscsscsccsccccssscscccccccscccssccccccccscsscssscccsssscsscscsccccccccsssccscccccccccscscccccccccccccscccccccccccccccccccccccccccccccsccccccccccccccccccc"
   style="fill:#323a39;fill-opacity:1" />
<path
   fill="#9a8b8c"
   opacity="1"
   stroke="none"
   d="m 319.10982,910.70101 c -0.98224,-1.0053 -2.73523,-1.95513 -2.81225,-3.02563 -0.32004,-4.44659 -0.13447,-8.92969 -0.13447,-14.02966 9.47428,3.01519 18.41797,3.40069 27.00828,-2.0376 -7.19629,-7.79712 -13.95179,-15.11676 -20.70731,-22.43634 0.35998,-0.39044 0.71997,-0.78088 1.07996,-1.17126 2.93148,0.27215 5.8638,0.74529 8.79412,0.73345 1.50937,-0.006 3.01526,-0.87555 4.52271,-1.35492 -0.7439,-1.36621 -1.31778,-2.86462 -2.25977,-4.07696 -5.45465,-7.0199 -10.99609,-13.97247 -16.50815,-20.94782 0.3787,-0.41308 0.75742,-0.82611 1.13611,-1.23919 3.7454,0.24872 7.49082,0.49743 12.1391,0.80615 -3.99978,-4.65277 -7.53647,-8.09796 -10.24182,-12.10443 -2.63306,-3.89941 -4.41867,-8.49079 -6.76956,-13.09522 3.42422,0.2002 5.9884,0.3501 8.55258,0.5 0.19568,-0.40295 0.39136,-0.80591 0.58706,-1.20886 -11.19,-9.8443 -10.0263,-24.50946 -14.68527,-37.08991 -4.65371,12.68958 -5.94971,26.36615 -16.76886,37.23047 h 10.12482 c -6.0239,8.69001 -11.39145,16.43317 -16.759,24.17633 0.23584,0.47553 0.47171,0.95105 0.70755,1.42658 3.41525,-0.48847 6.83053,-0.97693 11.1026,-1.58801 -2.0549,3.69336 -3.89325,7.12176 -6.38818,11.60595 -5.67005,-7.33813 -10.83216,-14.13104 -16.1367,-20.99609 h 16.23401 c -6.8464,-8.5766 -13.18853,-16.52142 -20.30655,-25.43823 6.39374,0.59106 11.07688,1.02398 16.75715,1.54907 -6.8906,-8.66663 -12.79328,-16.0907 -19.27323,-24.24085 4.70499,0.33234 8.11405,0.57312 11.52307,0.81391 0.32492,-0.5835 0.64984,-1.16705 0.97474,-1.75061 -15.50638,-11.61676 -16.53739,-29.48767 -20.17667,-46.23163 -0.49906,-0.0192 -0.99811,-0.0383 -1.49716,-0.0574 -0.62696,1.33178 -1.47459,2.60607 -1.83982,4.0061 -0.52212,2.00146 -2.08067,9.16128 -4.02057,16.72209 -0.84247,3.28357 -2.43279,6.70994 -3.6619,9.37864 -1.20241,2.61072 -3.54499,6.56849 -4.90042,7.96279 -0.47044,0.48393 -1.18162,1.17324 -1.80533,2.01831 -0.81858,1.1091 -1.76608,2.07678 -2.40237,2.59416 0,0 0.42092,1.32335 0.48431,1.39579 0.12569,0.1436 3.24045,-0.37825 3.42891,-0.43635 0.0253,-0.008 3.87333,-0.64721 4.55485,-0.72331 0.3244,-0.0362 2.30499,-0.1581 2.84293,-0.27006 0.12233,-0.0254 0.43059,-0.13457 0.36063,-0.0151 -0.0752,0.12837 -0.0976,0.12801 -0.21462,0.29048 -0.2102,0.29185 -0.52343,0.77777 -0.70537,1.06887 -3.7429,5.98859 -12.66305,19.25174 -15.68527,24.07879 -0.0137,0.0218 0.15634,0.008 0.18766,0.0275 0.67721,0.43101 11.2267,0.47091 10.98026,0.93198 -5.53367,10.35288 -11.7822,18.68298 -14.25,22.67598 l -2.13259,0.42811 c -0.36364,-0.56929 -0.83532,-1.30837 -1.83801,-2.89719 -2.00655,-3.1795 -5.25375,-8.10126 -9.8805,-15.47477 -0.27036,-0.43086 -2.31092,-3.16666 -3.07806,-4.63707 -0.17815,-0.34147 0.89966,-1.13028 0.87344,-1.23683 -0.0189,-0.0767 1.80935,-0.10676 3.45918,0.19103 0.68351,0.12337 1.52989,0.16999 2.08447,0.33045 0.90722,0.2625 1.3463,0.62116 1.33372,0.57238 -1.31152,-5.08728 -3.25353,-10.409 -4.68312,-16.30804 -0.15708,-0.64816 -7.41945,-7.75947 -7.57718,-8.41348 -6.96073,-28.86239 -6.83088,-56.89223 -8.29616,-62.69988 -1.54234,-6.11309 -3.43985,-12.13892 -5.094,-18.22113 -0.29226,-1.07471 -1.03005,-1.50232 -1.78466,-2.45136 -0.73895,0.96423 -1.11134,1.55918 -1.47169,2.64866 -0.7258,2.19446 -1.65668,4.37521 -2.20677,6.63174 -2.59145,10.63031 -4.42382,21.41485 -10.80854,30.71447 -1.75049,2.54969 -3.24761,5.30096 -5.01816,7.83691 0.20761,0.38379 0.12476,0.5406 0.33237,0.92432 0.90238,-0.25141 19.21438,-11.29523 18.20532,-6.25396 -1.30192,6.50445 -21.46683,29.95193 -22.25881,31.04455 -0.82865,0.67087 -0.52658,0.5148 -0.65732,0.94435 -0.0658,1.39129 -0.26253,2.32842 0.32954,3.6405 1.12915,0.0102 15.40443,-8.45485 16.47428,-8.51945 1.11147,-0.29669 -19.14308,26.02656 -26.41863,36.10664 -9.30824,-10.05316 -15.77363,-20.32367 -21.2353,-31.69348 0.0267,-0.42383 0.16551,-0.5697 0.16551,-0.5697 6.92522,1.56348 13.7614,5.01349 22.52229,0.7218 -13.24362,-8.7948 -21.83056,-20.27655 -28.04628,-33.13269 h 16.07742 c 0.23168,-0.43591 0.46334,-0.87183 0.695,-1.30768 -11.35706,-7.45489 -17.78107,-18.47979 -23.79358,-30.97546 3.78314,1.02447 6.69345,1.9848 9.67947,2.53198 1.11398,0.20416 3.00185,-0.20611 3.45136,-0.97272 0.47447,-0.80914 -0.0458,-2.55676 -0.65689,-3.58081 -1.8689,-3.13183 -4.54224,-6.39711 -6.5397,-10.16317 4.31928,-2.07586 9.21893,-2.99143 13.44906,-4.51694 17.79217,-6.41651 35.73138,-12.47742 53.27006,-19.53064 19.0783,-7.67243 37.8104,-16.21424 56.62212,-24.53809 14.40692,-6.37475 28.75372,-12.89105 43.03503,-19.54242 16.43427,-7.65393 33.00951,-15.22024 45.07771,-29.37331 7.19049,-8.43262 13.5307,-17.59998 20.10425,-26.54645 8.28519,-11.27594 17.57449,-21.45972 28.45474,-30.41742 6.56351,-5.40381 12.41092,-12.12415 17.10495,-19.22779 4.80268,-7.26791 7.9289,-15.67001 11.53534,-23.68969 1.53574,-3.41501 2.42682,-7.11991 3.61084,-10.69309 -3.80862,2.84177 -6.52823,6.14417 -9.39706,9.31143 -14.15137,15.62342 -31.11728,27.76038 -48.11115,40.0589 -13.51803,9.78308 -26.30468,20.84742 -38.1094,32.64978 -11.39942,11.39722 -22.10117,23.44135 -35.36399,32.77308 -1.35516,0.95349 -3.3179,1.04339 -5.85223,1.78326 2.97287,-6.11951 5.36151,-11.0365 7.75018,-15.95349 -0.43099,-0.31079 -0.86196,-0.62164 -1.29296,-0.93244 -1.07245,0.61438 -2.27009,1.08124 -3.19678,1.8675 -5.56485,4.72119 -10.75449,9.94958 -16.6507,14.20294 -16.53927,11.93085 -33.06912,23.8143 -50.14588,34.94595 -25.34809,16.52319 -51.58739,31.83519 -79.09621,44.53135 -5.25566,2.42573 -10.88208,4.22139 -16.31623,6.26045 -2.64912,-8.8891 -5.25725,-18.22466 -8.0053,-27.08306 -0.47333,-1.52582 -1.54554,-2.45504 -2.36066,-3.87484 -0.57585,1.10371 -1.35832,1.9447 -1.82066,2.97718 -0.11245,0.2511 -0.2577,0.68839 -0.31686,0.97653 -2.71665,13.23218 -5.37404,27.03566 -13.26193,38.6172 -2.29465,3.3692 -5.14307,6.05332 -7.59748,9.31363 0.254524,0.59314 0.509056,1.18634 0.763581,1.77948 4.048949,-0.87311 8.097879,-1.74627 13.633489,-2.93994 -3.44875,6.16645 -6.1072,11.80634 -9.58326,16.88678 -3.506429,5.12494 -7.824231,9.69476 -11.786573,14.50775 0.152641,0.53296 0.305283,1.06586 0.457924,1.59882 4.356064,-0.45013 8.71212,-0.90033 14.015359,-1.44837 -7.035172,10.9571 -13.877473,21.61377 -21.586328,33.62006 -5.188835,-9.68109 -9.663986,-18.03064 -14.596023,-27.2326 5.387695,1.36474 9.439262,2.39105 13.490829,3.41729 0.241829,-0.49713 0.483658,-0.99426 0.725487,-1.49145 -0.417091,-0.97785 -0.58741,-2.20667 -1.288254,-2.896 -10.806892,-10.62884 -14.593535,-24.18234 -16.850989,-38.51974 -0.698204,-4.43439 -1.230053,-8.89825 -2.063442,-13.30597 -0.210629,-1.11401 -1.287827,-2.06415 -1.966786,-3.0896 -0.933418,0.99427 -2.430423,1.85266 -2.708206,3.00495 -1.713306,7.10723 -3.062393,14.30127 -4.702553,21.42736 -2.452583,10.65589 -6.131363,20.75489 -13.799076,28.95038 -0.514045,0.5495 -0.687324,1.41773 -1.386009,2.93402 h 12.892311 c -1.395946,2.98243 -2.300217,6.14466 -4.13884,8.61011 -5.356479,7.18274 -11.145233,14.04157 -16.621151,21.13806 -1.104353,1.43109 -1.578456,3.34864 -2.343135,5.04187 1.800743,0.50495 3.637617,1.53089 5.394859,1.409 3.93322,-0.27283 7.826805,-1.11719 12.852772,-0.7367 -4.663227,6.02003 -9.060795,12.27369 -14.080731,17.97992 -3.492918,3.97046 -7.811409,7.2223 -11.819608,10.72828 -1.773537,1.55139 -3.277457,3.02478 -1.34249,5.77807 -1.383091,2.87836 -2.533151,5.31305 -3.735471,7.85846 1.158704,0.58179 2.221527,1.11548 3.655111,1.83533 -2.868572,4.6806 -5.502348,8.97815 -8.381124,13.67535 -1.075257,-0.0497 -2.634085,-0.12176 -3.872738,-0.17901 -1.256619,3.91858 -2.600948,7.52008 -3.419572,11.2373 -0.138554,0.62915 1.887292,1.95758 3.111993,2.55567 0.494997,0.24163 1.523551,-0.60938 2.309309,-0.9632 0.394241,0.3811 0.788482,0.76215 1.182723,1.14325 -1.449537,1.92303 -2.899074,3.84607 -4.47474,5.9364 0.549705,0.35828 1.339027,0.68323 1.863014,1.25244 1.204987,1.30908 2.280872,2.73694 3.409156,4.11658 -1.633955,0.47833 -3.26259,1.31055 -4.903338,1.3352 C 4.283997,864.21753 2.639333,863.43091 1.000005,863 1,804.64575 1,746.29156 1,687.46863 33.45092,674.60364 63.662777,657.69806 93.864891,640.79016 137.40942,616.41278 177.65172,587.12195 217.87004,557.74567 c 23.3875,-17.08271 47.9951,-32.51013 71.1779,-49.85309 17.82437,-13.33426 34.44992,-28.30149 51.31015,-42.88748 30.73905,-26.59284 61.25867,-53.43927 91.86234,-80.18854 2.00632,-1.75363 4.20938,-3.36716 5.87866,-5.40766 11.35611,-13.88137 33.78186,-15.56594 48.42371,-7.73495 12.07266,6.45691 22.12381,15.3049 32.0679,24.44476 19.61804,18.03156 39.25696,36.04209 59.06366,53.86527 3.41815,3.0758 7.41815,5.89587 11.64563,7.61069 14.82001,6.01147 26.9209,15.65274 38.28564,26.608 22.2063,21.40606 45.13526,41.98422 70.82154,59.24594 26.97418,18.12732 54.73236,34.90722 84.1018,48.91778 0.7442,0.35511 1.43115,0.83039 2.32916,1.55182 -3.2218,3.59888 -6.73095,6.7981 -9.98138,10.24152 -1.23682,1.31024 -1.87945,3.18133 -2.79291,4.79681 1.70178,0.69599 3.38776,1.94776 5.10803,1.99677 10.31269,0.29394 18.60206,-5.20899 28.21668,-10.12006 0,1.91058 0.49182,3.79077 -0.0774,5.25971 -4.75312,12.26617 -11.86463,23.1203 -21.15247,32.36029 -7.30054,7.26288 -15.26587,13.85412 -22.82672,20.86157 -1.33441,1.23675 -2.13159,3.05316 -3.17688,4.60187 1.94281,1.04309 4.01502,3.15381 5.80505,2.9367 6.35517,-0.77057 15.96794,-1.91815 22.31268,-2.90394 11.30239,-1.75607 18.08752,-2.42875 19.54491,-2.15203 -1.72791,2.84582 -4.76927,7.72852 -6.74492,10.39051 -12.72662,17.14776 -28.15685,31.42413 -45.953,43.22149 -3.0979,2.05359 -4.97644,1.33966 -7.20032,-1.1123 -9.25836,-10.20825 -16.83369,-22.07266 -22.42665,-35.09994 0.0722,-0.51459 0.5935,-0.76825 0.5935,-0.76819 5.47583,1.71485 11.1282,3.90872 16.69985,5.21481 1.48346,0.34778 3.43671,-1.30811 5.17426,-2.04395 -0.85626,-1.51605 -1.42682,-3.31793 -2.61304,-4.50403 -12.18329,-12.18237 -19.50464,-27.2055 -25.42218,-43.06561 -0.32397,-0.86828 -0.41858,-1.8222 -0.7691,-3.41339 5.41077,3.00861 9.12439,8.41712 16.47754,6.97437 -0.70954,-1.80042 -0.96082,-3.29029 -1.76868,-4.35987 -11.96686,-15.84314 -17.25476,-34.28381 -20.95862,-53.36328 -0.4743,-2.44324 -0.98535,-4.91949 -1.87774,-7.22632 -0.52979,-1.36932 -1.83936,-2.43701 -2.79828,-3.64025 -0.98896,1.36779 -2.50153,2.60565 -2.87873,4.1253 -1.91949,7.73352 -3.55499,15.5379 -5.27136,23.32153 -2.8136,12.76007 -8.62152,24.02527 -16.7608,34.19464 -1.08789,1.35926 -1.33832,3.38874 -1.97656,5.10785 1.89221,0.0941 3.95221,0.71491 5.64264,0.17603 3.90728,-1.24549 7.63537,-3.05298 12.25897,-4.97449 -0.87458,2.72199 -1.40784,5.04914 -2.34815,7.19824 -5.35553,12.24109 -13.15942,22.68195 -23.25433,31.44733 -1.1488,0.99756 -1.7937,2.5755 -2.6723,3.8844 1.39624,0.62573 2.82544,1.84509 4.1828,1.76977 4.71093,-0.26147 9.39685,-0.97259 14.30999,-1.53765 -8.3059,15.31598 -17.53814,29.9552 -32.06756,40.49005 -1.31226,0.95147 -2.17371,2.52466 -3.24451,3.80914 1.80615,0.99457 3.52844,2.62238 5.43286,2.8747 8.47528,1.12237 16.49445,-1.06342 24.83918,-4.04456 0.52343,0.0894 0.84423,0.4035 0.84423,0.4035 -8.87628,18.15784 -22.91742,31.51313 -39.80951,43.10932 -3.70214,-5.64459 -7.21142,-10.99512 -11.60925,-17.70044 4.93732,1.1416 8.32294,2.19702 11.78748,2.6546 4.09515,0.54071 8.25732,0.69397 12.39294,0.72888 1.13019,0.01 2.26911,-1.0083 3.40399,-1.55462 -0.71124,-1.20057 -1.13012,-2.84455 -2.17761,-3.53516 -15.84863,-10.44867 -25.6889,-25.74304 -34.21271,-42.56897 0.041,-0.47711 0.31995,-0.77466 0.31995,-0.77466 4.41608,1.43799 8.7699,3.14032 13.2746,4.20166 2.22778,0.52484 4.73382,-0.13165 7.52667,-1.0058 -13.45679,-13.44586 -22.23303,-29.39239 -30.31873,-47.11883 6.60608,2.87091 12.09571,6.24945 19.55194,3.93249 -1.46344,-2.12768 -2.38464,-3.82361 -3.63372,-5.2279 -12.40265,-13.94428 -18.76062,-30.42371 -20.70209,-48.80207 -0.43183,-4.0877 -0.88806,-8.18756 -1.67963,-12.21368 -0.23718,-1.20673 -1.6488,-2.1825 -2.5224,-3.2641 -0.95208,1.10254 -2.45691,2.06702 -2.77185,3.32855 -3.6604,14.65973 -6.82147,29.45148 -10.78992,44.02436 -2.37255,8.71246 -6.46807,16.77539 -13.60937,22.84307 -0.30914,0.26264 -0.29468,0.90613 -0.57257,1.85621 6.02081,2.46691 10.83923,-1.00202 17.40039,-3.85285 -2.24329,5.35077 -3.65082,9.50702 -5.66107,13.34772 -5.28027,10.08832 -11.47351,19.51892 -20.57746,26.71588 -0.99865,0.78949 -1.37884,2.36133 -2.04583,3.57025 1.34356,0.4306 2.73547,1.33899 4.02221,1.20868 5.40271,-0.5473 10.77393,-1.40533 16.55341,-2.20447 -3.21411,8.49091 -8.133,16.42249 -14.2768,23.49152 -6.19897,7.13245 -12.94732,13.78735 -20.60571,21.86542 -7.92071,-11.69062 -15.19397,-22.42566 -22.46728,-33.16071 0.41095,-0.31122 0.82184,-0.62243 1.23278,-0.93365 3.68598,0.63592 7.3584,1.38488 11.0672,1.83093 0.96936,0.11658 2.52008,-0.44183 2.94312,-1.18213 0.37842,-0.66211 -0.0968,-2.34289 -0.76282,-2.99243 -13.28076,-12.95093 -17.30066,-29.94672 -20.83905,-47.18262 -0.44909,-2.18768 -1.27905,-4.29718 -1.93262,-6.44287 -0.46649,-0.0401 -0.93304,-0.0802 -1.39953,-0.12024 -0.64642,1.50574 -1.52527,2.95612 -1.89917,4.52673 -1.65558,6.95435 -3.06622,13.96747 -4.75208,20.91407 -2.64538,10.90075 -7.6145,20.55957 -15.72097,28.47052 -0.70755,0.69049 -1.32062,1.48559 -1.91565,2.27862 -0.17548,0.23383 -0.13822,0.62732 -0.31141,1.54846 4.81275,2.77527 8.95578,-1.20892 14.01075,-1.664 -0.53217,1.38703 -0.75608,2.63898 -1.41605,3.58753 -6.83053,9.81707 -13.7547,19.56909 -20.58441,29.38678 -0.89182,1.28198 -1.39865,2.83185 -2.0838,4.25763 1.65497,0.51812 3.39255,1.64721 4.94891,1.4367 4.21018,-0.56964 8.34329,-1.70855 13.97598,-2.94372 -4.85443,7.19647 -8.68048,13.74945 -13.38253,19.5982 -4.97739,6.19116 -10.82807,11.67579 -16.1998,17.55811 -1.03086,1.1289 -1.60993,2.67041 -2.3974,4.0216 1.60739,0.59064 3.36554,1.93207 4.79654,1.64472 6.95398,-1.39655 13.82031,-3.22925 21.43423,-5.08185 -8.17111,13.33893 -17.8092,25.29273 -29.27615,37.16962 -4.7475,-6.74463 -9.16773,-13.02423 -13.58795,-19.3039 0.29175,-0.31298 0.58352,-0.62597 0.87527,-0.93902 2.81912,0.75445 5.60059,1.83874 8.46842,2.16583 2.60403,0.297 5.30206,-0.23004 8.17865,-1.09198 -9.07734,-7.76166 -16.008,-16.56366 -20.63941,-27.23651 4.07157,0.23608 7.71948,0.44757 11.74332,0.68085 -4.71918,-7.89557 -9.72473,-14.54273 -12.84577,-21.98059 -3.08758,-7.35816 -4.27276,-15.51459 -7.34713,-23.52918 -0.6117,1.70599 -1.26093,3.39954 -1.82877,5.12 -2.91266,8.82495 -5.33551,17.8515 -8.8884,26.40948 -1.97168,4.74927 -5.82246,8.61013 -9.06889,13.28427 3.39463,3.5459 6.82942,-0.63833 11.10594,-0.32773 -1.92813,6.66773 -5.59704,12.01978 -9.70358,17.0708 -1.98541,2.44214 -4.50929,4.33298 -6.67012,6.64316 -0.72686,0.7771 -1.09216,1.89245 -1.62277,2.85321 1.12406,0.4967 2.25552,1.42737 3.37082,1.40845 3.28592,-0.056 6.56953,-0.37827 10.57988,-0.72647 -4.09217,8.22797 -8.98064,15.21762 -15.58379,21.10574 -0.74435,0.66376 -1.69909,1.13061 -2.32309,1.88232 -1.39581,1.68128 -2.64437,3.48481 -3.95285,5.23859 2.43598,0.73492 4.89634,2.13348 7.30204,2.04498 3.37942,-0.12427 6.7223,-1.243 10.87174,-2.17819 -5.28213,9.37879 -11.45799,17.04154 -19.79157,23.01816 -0.81144,0.58185 -1.79517,0.98163 -2.46543,1.68762 -0.8486,0.89374 -2.26425,2.38879 -1.99997,2.95819 0.52356,1.12805 1.98701,2.56437 3.14583,2.65067 4.08392,0.30432 8.2044,0.11841 12.74881,0.11841 -4.52423,7.40515 -9.26474,14.84418 -16.56058,20.39166 -1.7114,1.30127 -2.88083,3.31525 -4.29959,5.0014 2.40277,1.21534 4.74069,3.31031 7.21963,3.49305 10.39984,0.7666 20.08429,-2.08258 29.16077,-7.10565 0.54694,-0.30274 1.10306,-0.58875 3.07397,-1.63819 -1.24243,8.73041 -2.14782,16.37799 -3.58511,23.92426 -0.23904,1.255 -2.72,2.807 -4.29342,2.9682 -11.41242,1.16955 -22.8642,1.94793 -34.28995,2.99823 -5.20551,0.47845 -10.36753,1.67791 -15.57227,1.84851 -5.4155,0.17749 -18.64786,-0.79247 -16.96437,-1.20664 -14.13412,-0.41626 -27.5978,-0.54279 -41.06173,-0.60095 -0.92609,-0.004 -1.85437,0.50256 -2.78162,0.77166 M 9.278993,832.4707 c -0.267215,0.25415 -0.53443,0.5083 -0.801642,0.76251 0.105267,0.11066 0.210533,0.22132 0.315808,0.33198 0.267263,-0.25446 0.534526,-0.50892 0.485834,-1.09449 z"
   id="path3"
   sodipodi:nodetypes="csccccscscccscccccccccccccccccccssssscssssssssssccssssssssssscsssccsccccccccccccssscssssssssscssssccccscscscssscccsccccccccsscsssccsscscsscccccsscccscsccssssssssssssscscscsssccscsscccsccscccsscssscsccscscsccccccssccccsccccssccssccsscscscccsscsccssssccsscccsscsccccscccscssccsscccsscscsssscscsscscsscsccccc" />
<path
   fill="#9a8b8c"
   opacity="1"
   stroke="none"
   d="m 976.00409,739.99078 c -1.05921,-1.61181 -2.11841,-3.22357 -3.86463,-5.88073 6.26008,1.6311 11.26746,3.19622 16.38654,4.18011 3.54096,0.68054 7.23639,0.71057 10.86218,0.70331 1.08932,-0.002 2.84292,-0.91779 3.08132,-1.7583 0.2505,-0.88312 -0.6574,-2.59857 -1.562,-3.23047 -15.4144,-10.76843 -24.05569,-26.74408 -32.88528,-42.56818 -1.53156,-2.74481 -2.92272,-5.62598 -4.21893,-8.96149 0.0117,-0.83042 0.39277,-1.02335 0.39277,-1.02335 5.77624,1.77075 11.58165,4.42539 17.49059,5.30747 5.3955,0.80549 5.96812,-0.98405 3.08708,-6.05998 11.95862,4.82239 24.20537,9.90502 36.28947,15.04656 1.0566,0.44952 1.4826,0.90328 2.9191,1.31405 0.3764,41.50271 0.075,81.78264 0.016,85.4086 0,0.1554 -9.1324,-0.0512 -9.1261,-0.0597 -0.2453,-0.20114 -15.51062,-13.48257 -26.29413,-24.90621 -0.12434,-0.13172 -0.68291,-0.90706 -1.0024,-1.42771 -0.0669,-0.1091 -0.24729,-0.39861 -0.30217,-0.45913 -0.12781,-0.14092 -0.35357,-0.36989 -0.53352,-0.52377 -0.16522,-0.19153 -0.36002,-0.40146 -0.55707,-0.59108 -0.0824,-0.11365 -0.29949,-0.50864 -0.40415,-0.60071 -0.1425,-0.12536 -0.26686,-0.41372 -0.3501,-0.5407 -0.19531,-0.29795 -0.40899,-0.4953 -0.53147,-0.75738 -0.19614,-0.41972 -0.27554,-0.50178 -0.50678,-0.88783 -0.16863,-0.22501 -0.25651,-0.38586 -0.32388,-0.48093 -0.23463,-0.33112 -0.25513,-0.3871 -0.29976,-0.43807 -0.16393,-0.1872 -0.19541,-0.29456 -0.31927,-0.43515 -0.13701,-0.15553 -0.33202,-0.43154 -0.43918,-0.54979 -0.0293,-0.0324 -0.0845,-0.11735 -0.10137,-0.13598 -3.87005,-4.2436 -4.36449,-5.29722 -4.85091,-6.30204"
   id="path4"
   sodipodi:nodetypes="ccsssssccscscscssssssssssssssc"
   style="fill:#998a8b;fill-opacity:1" />
<path
   fill="#97898a"
   opacity="1"
   stroke="none"
   d="m 998.84771,786.29205 c 0.0308,0.008 1.14996,0.24643 1.95049,0.37362 0.044,0.007 0.579,0.0365 0.7928,0.0401 0.8288,0.0139 2.5199,0.064 2.5446,0.14738 0.022,0.0751 2.3116,0.15782 2.3989,0.14776 1.737,-0.20019 2.4009,-0.11835 3.2536,-0.18277 0.2384,-0.018 0.813,-0.0937 1.1283,-0.26135 0.093,-0.0492 0.1271,-0.10228 0.5429,-0.3035 0.1065,-0.0515 0.2951,-0.2583 0.5471,-0.47378 0.3768,-0.32218 0.4996,-0.48007 0.5443,-0.5033 0.053,-0.0277 0.1693,-0.22209 0.2533,-0.31588 0.371,-0.41389 0.8133,-0.95841 0.9017,-1.06328 0.1747,-0.20709 0.6747,-0.86125 0.7923,-0.99336 0.2266,-0.25453 0.3281,-0.5183 0.4576,-0.52008 0.2059,-0.003 0.6768,0.0141 0.6768,0.0141 0.5917,-0.0819 1.126,-0.15166 1.168,-0.0317 0,0 7.1834,-2.16309 7.1899,0.009 0.037,12.18098 0.1079,88.38352 0.1079,104.56642 -0.9699,-0.18072 -0.7196,-0.0595 -3.2416,-0.3131 -9.2802,-0.93299 -17.5215,-2.76163 -26.78992,-4.11144 -10.35828,-1.50853 -20.67389,-3.33198 -31.05395,-4.65857 -4.06915,-0.52008 -5.93585,-2.05542 -5.87885,-6.26612 0.13605,-10.05853 0.0439,-20.12011 0.0439,-30.47326 2.2334,1.604 4.66913,3.23071 6.97211,5.02758 12.80078,9.98816 27.78466,13.10401 43.50651,13.63593 1.7965,0.0608 3.6512,-1.59698 5.4789,-2.45795 -1.1997,-1.56848 -2.0796,-3.66815 -3.6532,-4.61548 -7.6944,-4.63244 -13.83869,-10.22833 -16.73255,-15.26336 7.26325,-1.15247 15.05255,-2.22791 22.75715,-3.7359 1.6929,-0.33142 3.0849,-2.19971 4.6154,-3.36023 -1.1634,-1.48157 -2.0412,-3.39844 -3.534,-4.37793 -16.92827,-11.10816 -28.70195,-26.54377 -38.11925,-44.97791 7.1449,1.81269 20.37886,5.2982 20.37886,5.2982 z"
   id="path5"
   sodipodi:nodetypes="csssssssssssssssscssssccscccsccccc"
   style="fill:#958788;fill-opacity:1" />
<path
   fill="#978889"
   opacity="1"
   stroke="none"
   d="m 1.000005,863.46863 c 1.639328,-0.0377 3.283992,0.7489 4.916475,0.72442 1.640748,-0.0246 3.269383,-0.85687 4.903338,-1.3352 -1.128284,-1.37964 -2.204169,-2.8075 -3.409156,-4.11658 -0.523987,-0.56921 -1.313309,-0.89416 -1.863014,-1.25244 1.575666,-2.09033 3.025203,-4.01337 4.47474,-5.9364 -0.394241,-0.3811 -0.788482,-0.76215 -1.182723,-1.14325 -0.785758,0.35382 -1.814312,1.20483 -2.309309,0.9632 -1.224701,-0.59809 -3.250547,-1.92652 -3.111993,-2.55567 0.818624,-3.71722 2.162953,-7.31872 3.419572,-11.2373 1.238653,0.0572 2.797481,0.12933 3.872738,0.17901 2.878776,-4.6972 5.512552,-8.99475 8.381124,-13.67535 -1.433584,-0.71985 -2.496407,-1.25354 -3.655111,-1.83533 1.20232,-2.54541 2.35238,-4.9801 3.901998,-7.56207 2.218853,0.0158 4.038153,0.17877 6.32684,0.71509 1.422821,0.13189 2.376255,-0.10962 3.329687,-0.35108 2.052063,-0.38861 4.104124,-0.77728 6.563299,-0.79803 0.448559,1.24365 0.490009,2.11944 0.531456,2.99524 -4.475445,5.13098 -8.950892,10.26196 -13.945028,15.68878 -0.72217,0.57934 -0.92565,0.86297 -1.129126,1.14654 4e-6,0 -0.0047,-0.0711 -0.207586,0.0411 -0.399912,0.39465 -0.596894,0.67719 -0.793881,0.95966 -4e-6,0 -0.006,-0.0713 -0.203663,0.0412 -0.400028,0.38659 -0.60238,0.66064 -0.804737,0.93469 -4e-6,0 -0.0082,-0.0609 -0.209184,0.0594 -0.396016,0.39898 -0.591021,0.67761 -0.786023,0.95623 6e-6,0 -0.0051,-0.0688 -0.205078,0.0405 -0.40023,0.38135 -0.600521,0.65338 -0.800808,0.92535 6e-6,0 -0.0058,-0.0447 -0.290981,-0.0167 -0.752395,0.36817 -1.219596,0.70831 -1.686781,1.04846 1.4e-5,7e-5 -0.02553,-0.0622 -0.226331,0.0554 -0.390656,0.39276 -0.580507,0.66791 -0.770362,0.943 -3e-6,0 -0.0259,-0.0621 -0.227889,0.0555 -0.393917,0.39532 -0.585843,0.67303 -0.777768,0.95068 1e-6,0 -0.01919,-0.0648 -0.232746,0.0651 -0.396186,0.4447 -0.578813,0.75946 -0.761443,1.07421 -0.962368,1.06794 -1.924732,2.13587 -2.86839,3.68549 0.161795,0.72009 0.362281,0.89136 0.620161,0.99555 0.254418,0.33233 0.508837,0.66473 1.153652,1.33239 0.602204,0.54059 0.851838,0.67621 1.139298,0.74231 0,0 -0.06665,0.0193 0.175016,0.27271 3.757034,0.78344 7.365225,2.98645 10.667421,-0.3252 2.116833,-0.74078 4.233672,-1.48163 7.514099,-2.62964 -5.038383,9.8172 -10.932033,17.18555 -18.936534,22.82056 -0.950888,0.66937 -2.091513,1.11914 -2.912993,1.91064 -1.233645,1.18873 -2.262854,2.5896 -3.379033,3.90027 1.74862,1.03906 3.571935,3.0705 5.232996,2.9455 7.226485,-0.5437 14.527837,-1.18927 21.563832,-2.82331 5.730355,-1.33081 11.122551,-4.11755 16.704262,-6.27386 0,7.72131 0.153042,15.34613 -0.126839,22.95502 -0.05719,1.55487 -1.739025,3.05011 -3.47533,4.66613 -7.204952,0.31104 -13.606533,0.52881 -20.008114,0.74659 -0.795688,-0.0123 -1.591375,-0.0247 -3.212543,-6.1e-4 -6.138768,0.3684 -11.452053,0.70038 -16.765338,1.03234 -0.488062,-0.0154 -0.976124,-0.0309 -2.147497,-0.0228 C 1.85691,898.1131 1.428455,898.05652 1,898 c 0,-11.35425 0,-22.70844 5e-6,-34.53137 z"
   id="path6" />
<path
   fill="#323a39"
   opacity="1"
   stroke="none"
   d="m 1,898.33331 c 0.428455,-0.27679 0.85691,-0.22021 1.607415,-0.12286 -0.12578,0.5932 -0.57361,1.14545 -1.314427,1.74365 C 1,899.55554 1,899.11108 1,898.33331 Z"
   id="path7" />
<path
   fill="#998a8b"
   opacity="1"
   stroke="none"
   d="m 864.55306,631.87709 c 8.61859,3.59198 16.80503,7.38915 25.60795,10.45134 2.96015,1.02985 24.35785,9.64566 32.88013,13.47299 -4.03267,6.28041 -8.09316,12.53604 -12.26868,18.68283 -0.74143,1.09147 -1.98981,1.88666 -2.56262,3.03815 -0.60468,1.21539 -1.18585,2.86023 -0.81116,3.99988 0.25507,0.77582 2.24457,1.53729 3.33258,1.38781 4.90448,-0.67382 9.76398,-1.6751 15.91657,-2.78967 -2.71735,5.8056 -5.23352,11.18122 -7.99042,17.07129 -25.51599,-15.70123 -42.60023,-39.80205 -55.67671,-65.84477 0.27529,-0.14892 1.57236,0.53015 1.57236,0.53015 z"
   id="path8"
   sodipodi:nodetypes="cscsssscccc" />
































<path
   fill="#f4f4ef"
   opacity="1"
   stroke="none"
   d="M 885.87549,588.80969 C 0,0 0,0 885.87549,588.80969 Z"
   id="path41"
   sodipodi:nodetypes="cc" />


















<path
   fill="#f4f4ef"
   opacity="1"
   stroke="none"
   d="M 876.03662,577.81995 C 0,0 0,0 876.03662,577.81995 Z"
   id="path60"
   sodipodi:nodetypes="cc" />





<path
   fill="#232927"
   opacity="1"
   stroke="none"
   d="M 886.14441,626.12378 C 0,0 0,0 886.14441,626.12378 Z"
   id="path66"
   sodipodi:nodetypes="cc" />










<path
   fill="#f4f4ef"
   opacity="1"
   stroke="none"
   d="M 877.98718,579.28821 C 0,0 0,0 877.98718,579.28821 Z"
   id="path77"
   sodipodi:nodetypes="cc" />


<path
   fill="#f4f4ef"
   opacity="1"
   stroke="none"
   d="m 877.26746,578.78625 c -0.29108,-0.22772 1.27662,0.99855 0,0 z"
   id="path80"
   sodipodi:nodetypes="ss" />



<path
   fill="#ab9a99"
   opacity="1"
   stroke="none"
   d="m 130.94358,686.26657 c 5.3813,-2.38837 11.04397,-4.02334 16.29963,-6.44907 27.50882,-12.69616 53.7971,-27.66528 79.14519,-44.18847 17.07676,-11.13165 33.60254,-23.12512 50.14181,-35.05597 5.89621,-4.25336 11.08585,-9.48175 16.6507,-14.20294 0.92669,-0.78626 2.12433,-1.25312 3.19678,-1.8675 0.431,0.3108 0.86197,0.62165 1.29296,0.93244 -2.38867,4.91699 -4.77731,9.83398 -7.75018,15.95349 2.53433,-0.73987 4.49707,-0.82977 5.85223,-1.78326 13.26282,-9.33173 23.96457,-21.37586 35.36399,-32.77308 11.80472,-11.80236 24.59137,-22.8667 38.1094,-32.64978 16.99387,-12.29852 33.95978,-24.43548 48.11115,-40.0589 2.86883,-3.16726 5.58844,-6.46966 9.39706,-9.31143 -1.18402,3.57318 -2.0751,7.27808 -3.61084,10.69309 -3.60644,8.01968 -6.73266,16.42178 -11.53534,23.68969 -4.69403,7.10364 -10.54144,13.82398 -17.10495,19.22779 -10.88025,8.9577 -20.16955,19.14148 -28.45474,30.41742 -6.57355,8.94647 -12.91376,18.11383 -20.10425,26.54645 -12.0682,14.15307 -28.63937,21.8294 -45.07364,29.48333 -14.28131,6.65137 -28.62811,13.16767 -43.03503,19.54242 -18.81172,8.32385 -37.54382,16.86566 -56.62212,24.53809 -17.53868,7.05322 -35.47789,13.11413 -53.27006,19.53064 -4.23013,1.52551 -8.97311,2.83229 -13.34534,4.57393 -1.35948,-1.82502 -2.3207,-4.22204 -3.65441,-6.78838 z"
   id="path84"
   sodipodi:nodetypes="ccssscccsssscssssssssscc" />
<path
   fill="#968789"
   opacity="1"
   stroke="none"
   d="m 810.32538,848.90955 c -0.67163,6.35699 -1.34326,12.71398 -2.64142,19.49292 -6.99127,0.42089 -13.35608,0.41992 -19.80054,0.10882 -10.31121,-0.37054 -15.85269,0.59453 -26.0834,0.66418 -1.02405,0.007 -6.73117,0.0365 -8.10672,0.69599 -0.83362,0.0236 -1.31171,-0.0163 -1.97748,-0.26154 -1.00195,-0.0611 -1.81622,0.0831 -3.09015,0.2873 -3.83429,0.11206 -7.20904,0.16406 -10.58374,0.21606 -3.70349,0.62134 -7.39044,1.56537 -11.11597,1.75543 -2.67266,0.13629 -5.33947,-0.93768 -5.58349,-4.31952 -0.67572,-9.36529 -1.2525,-18.73767 -1.93475,-29.11584 6.63635,4.01398 11.98297,7.59235 17.63946,10.5849 7.64154,4.04303 15.94537,5.79913 24.5827,5.01507 2.07801,-0.18865 4.02753,-1.79205 6.03614,-2.74481 -1.17664,-1.80682 -2.05634,-3.93194 -3.58661,-5.35986 -4.30524,-4.01733 -8.87818,-7.74774 -12.69483,-12.30749 6.34778,0.77355 12.67884,1.83526 19.05005,2.20452 3.40869,0.19764 6.94043,-0.5672 10.30914,-1.3565 1.57026,-0.36792 2.88489,-1.82679 4.31537,-2.7912 -1.10992,-1.46204 -2.15216,-2.98358 -3.36193,-4.35767 -0.50812,-0.57715 -1.37061,-0.8421 -3.1637,-1.88232 12.72705,-3.13153 22.77807,-9.43128 32.43823,-16.05091 -0.11267,13.61829 -0.37952,26.57038 -0.64636,39.52247 z"
   id="path85"
   sodipodi:nodetypes="cccsccccssccscscsscsccc" />
<path
   fill="#968889"
   opacity="1"
   stroke="none"
   d="m 697.12476,843.39563 c -0.71558,9.87872 -1.42701,19.31647 -2.16352,29.086 -5.40399,0.48535 -10.49304,0.87567 -15.56695,1.41003 -18.4986,1.94843 -36.99481,3.92035 -55.48474,5.94977 -2.8202,0.30951 -5.49024,0.72485 -5.80286,-3.23175 -0.86316,-10.92438 -1.70428,-21.8504 -2.63245,-33.78302 4.67823,2.81055 8.23914,5.55432 12.24872,7.2146 5.77454,2.39105 11.82843,4.16785 17.87293,5.80005 1.34338,0.36273 3.14416,-0.96845 4.73437,-1.51972 -0.59198,-1.59991 -1.0293,-3.28283 -1.82825,-4.7716 -0.56598,-1.05475 -1.62091,-1.84711 -2.93817,-3.27899 19.0846,8.07269 36.02576,7.10492 51.56507,-7.59742 0,1.53882 0,2.90998 -0.004,4.72205 z"
   id="path86" />
<path
   fill="#958788"
   opacity="1"
   stroke="none"
   d="m 853.32526,863.09338 c -1.21991,-16.84161 -2.43982,-33.68322 -3.65607,-50.47436 10.30438,5.28326 19.94458,10.22601 30.60138,15.68994 -5.56665,3.16772 -11.21265,6.31287 -16.78021,9.59137 -1.60767,0.94678 -2.98969,2.27673 -4.47516,3.43103 1.53106,1.32654 2.8565,3.11749 4.62768,3.90179 9.28418,4.11109 18.86139,2.54401 29.03369,1.71393 -2.24664,1.87866 -4.57311,3.67218 -6.70672,5.67151 -1.0846,1.01642 -2.74414,2.66358 -2.49139,3.55927 0.34466,1.22149 2.2702,2.82806 3.51183,2.82287 5.74378,-0.024 11.83747,0.55652 17.15131,-1.13519 9.72308,-3.09534 18.98493,-7.63953 28.4574,-11.58722 0,3.79596 0.0388,8.48938 -0.0227,13.18146 -0.0195,1.4892 -0.388,2.97107 -0.45837,4.46283 -0.5528,11.7221 0.67432,10.48724 -11.91248,9.3905 -0.97857,-0.71374 -1.37017,-1.18195 -1.7882,-1.20685 -17.81934,-1.06244 -35.63947,-2.11371 -53.4635,-3.09393 -4.6388,-0.25513 -10.24274,1.56854 -11.16633,-5.78674 -0.008,-0.0624 -0.30181,-0.0889 -0.46215,-0.13221 z"
   id="path87" />
<path
   fill="#495250"
   opacity="1"
   stroke="none"
   d="m 218.37334,787.10419 c 0.26899,0.33148 0.53794,0.58932 0.95282,1.44369 0.36988,0.62419 3.5141,4.46249 5.87435,7.98796 0.76864,0.61968 0.79208,1.15068 1.11007,1.38713 0.59314,0.71564 1.4563,1.65217 2.08148,3.04646 0.36552,0.99624 0.82176,2.14844 1.22889,3.05511 -1.49737,0.32788 -3.33839,0.80304 -5.22972,1.04309 -41.17798,-20.49592 -34.68057,-39.39836 -46.31962,-31.45856 -0.0656,0.34119 -0.55011,0.43994 -0.99455,0.19025 -1.31925,0.21014 -2.19403,0.66992 -3.06882,1.12976 -0.75427,0.0449 -1.50855,0.0897 -2.63245,-0.32349 -0.4017,-1.53601 -0.43377,-2.61383 -0.46583,-3.69165 0,0 0.061,0.007 0.29344,-0.12976 0.38855,-0.50079 0.54463,-0.8645 0.7007,-1.22815 1.1812,-1.74915 2.36239,-3.49823 3.96634,-5.29388 0.61947,-0.56269 0.81619,-1.07892 1.01291,-1.5951 0.84364,-1.38794 1.68728,-2.77581 2.9922,-4.5086 0.66469,-0.63752 0.86812,-0.93018 1.07156,-1.22284 -1e-5,0 0.0339,0.0699 0.27988,-0.15888 0.38029,-0.89715 0.51459,-1.56555 0.64889,-2.23388 -1e-5,0 -0.021,-0.28034 0.38323,-0.46961 0.81653,-1.17316 1.22888,-2.15704 1.64122,-3.14087 -2e-5,0 0.0546,-0.0109 0.31569,-0.20434 0.41078,-1.1095 0.56051,-2.02552 0.71025,-2.94153 0,0 0.0416,-0.41132 0.42013,-0.66077 0.66474,-1.5907 0.9509,-2.93194 1.23707,-4.27313 -1.29297,0.23816 -2.60241,0.41064 -3.87525,0.72931 -2.08044,0.52081 -4.13705,1.13678 -6.20372,1.71258 -0.20761,-0.38372 -0.41522,-0.76745 -0.62283,-1.15124 1.77055,-2.53595 3.55813,-5.0603 5.30862,-7.60999 6.38472,-9.29962 8.21318,-20.20135 10.80463,-30.83166 0.55009,-2.25653 0.8607,-4.58496 1.5865,-6.77942 0.36035,-1.08948 1.41208,-1.95026 2.15103,-2.91449 0.75461,0.94904 1.90592,1.79016 2.19818,2.86487 1.65415,6.08221 3.083,12.22522 4.62532,18.33832 2.49759,9.89923 5.66223,19.47931 12.97889,27.08288 0.38649,0.40174 0.37126,1.19007 0.93927,3.20099 -3.86263,-0.97638 -6.88501,-1.74029 -10.54412,-2.46881 -0.36625,0.66663 -0.0958,1.29773 0.17467,1.92889 0,0 -0.0783,0.0433 -0.0745,0.36194 0.69315,1.41797 1.38251,2.51734 2.07188,3.61664 0.2744,0.42846 0.6582,0.82385 0.93763,1.32819 0.37319,0.74988 0.71149,1.22107 1.04978,1.6922 1.8072,3.16519 3.87549,6.81533 5.99364,9.99633 0.78497,0.92233 3.22515,3.69005 4.85105,6.18342 0.48463,0.96252 0.84363,1.40313 1.20259,1.84375 0.24057,0.15606 0.45564,0.34161 0.755,1.08605 -0.65209,1.12116 -1.34916,1.8407 -2.19387,2.26917 -0.86138,0.43683 -1.66032,0.65351 -2.60328,0.92945 0,0 -0.7352,0.0186 -0.9879,-0.34792 -2.21448,-1.03336 -4.3525,-1.3336 -6.73941,-1.70502 -0.0392,0.60467 -0.0784,-0.62071 -0.11759,-0.016 0,0 -0.0348,0.23523 -0.029,0.62256 0.29046,0.64118 0.57506,0.89496 0.85968,1.1488 -1e-5,0 -0.0693,0.0243 0.0425,0.22059 0.29723,0.48773 0.55172,0.69403 0.87522,0.81506 1.65115,2.62408 3.54776,5.22362 5.34494,8.49193"
   id="path88"
   sodipodi:nodetypes="cccccccccccccccccscscsccccsccssscsssccccccsccccscccccsccc"
   style="fill:#323a39;fill-opacity:1" />
<path
   fill="#958789"
   opacity="1"
   stroke="none"
   d="m 590.23016,872.92847 c -0.11273,0.79016 -0.2254,1.58026 -0.77496,2.86133 -0.75409,1.01959 -1.39606,1.5874 -1.33783,2.07086 0.52625,4.37091 -0.77899,6.52789 -5.73358,6.42059 -2.74555,-0.0594 -5.52716,1.5448 -8.29248,2.39917 -13.73816,2.17773 -27.47638,4.35547 -42.11255,6.67554 0,-8.97559 0,-17.41846 0,-26.17572 4.05945,1.98101 8.01404,4.47454 12.32465,5.86206 4.67163,1.50384 9.64801,2.38165 14.54644,2.70801 2.06781,0.13775 4.27613,-1.83326 5.94934,-3.50501 4.69922,-0.22168 9.42347,-0.23553 14.08204,-0.79559 1.34362,-0.16144 2.49835,-1.89447 3.73974,-2.90686 -1.05658,-1.12305 -1.95978,-2.4654 -3.19671,-3.33087 -5.06861,-3.54664 -10.23902,-6.94776 -15.11432,-10.22913 9.28466,-4.46387 17.83868,-8.57648 26.51379,-12.74731 0.0547,0.65856 0.15717,1.89233 0.26428,3.9624 -0.28296,9.46771 -0.57043,18.09912 -0.85785,26.73053 z"
   id="path89" />
<path
   fill="#968889"
   opacity="1"
   stroke="none"
   d="m 131.79797,895.0426 c -0.0933,-9.99054 -0.0933,-19.55621 -0.0933,-29.14721 3.49352,1.14434 7.1915,2.35559 10.40662,3.40875 -0.72455,2.1557 -1.35376,4.02771 -1.98297,5.89972 1.95698,0.61835 3.91536,1.75995 5.87069,1.75482 5.41719,-0.0143 10.8331,-0.50665 17.54277,-0.19165 -1.36583,0.76086 -3.01661,1.25745 -4.0274,2.34753 -1.35112,1.45697 -2.20583,3.37433 -3.2737,5.09406 2.06935,0.65088 4.2941,2.14368 6.17908,1.79571 5.8143,-1.07312 11.53461,-2.72827 17.21655,-4.41034 2.32924,-0.68951 4.46675,-2.02655 7.39198,-3.39734 -0.47917,7.26691 -0.72839,13.85395 -1.53801,20.3714 -0.12493,1.0058 -2.86817,2.48328 -4.32356,2.39985 -10.9418,-0.62726 -21.86557,-1.57563 -32.7923,-2.45704 -4.46437,-0.36016 -8.93482,-0.70453 -13.37376,-1.27856 -1.09424,-0.14154 -2.07597,-1.15314 -3.2027,-2.1897 z"
   id="path90" />
<path
   fill="#968889"
   opacity="1"
   stroke="none"
   d="m 461.26718,903.22089 c -7.48782,1.88531 -8.02365,1.47412 -8.33386,-5.99237 -0.20252,-4.87329 -0.51852,-9.74183 -0.83685,-15.59021 9.63107,6.09576 19.255,7.89764 29.38485,7.31475 1.96875,-0.11328 4.01419,-0.31701 5.85263,-0.96557 3.48917,-1.23072 3.77445,-3.34247 1.00592,-5.80353 -1.36337,-1.21204 -2.7705,-2.37488 -4.12878,-3.59235 -0.22376,-0.20062 -0.29733,-0.56878 -0.14648,-0.26208 9.37295,-3.27216 18.81198,-6.56732 29.42501,-10.27234 -0.87951,9.25574 -1.63931,18.19263 -2.71594,27.09125 -0.10498,0.86792 -2.08035,1.92303 -3.32907,2.16699 -5.20154,1.01642 -10.45724,1.75562 -16.39096,2.31189 -10.69171,0.63123 -20.68555,1.54712 -30.67935,2.46301 0.29764,0.37683 0.59524,0.75373 0.89288,1.13056 z"
   id="path91" />
<path
   fill="#958789"
   opacity="1"
   stroke="none"
   d="m 223.87329,889.12707 c 8.76088,4.69135 16.97391,1.66041 25.20958,-0.3764 0.60385,-0.14935 1.26149,-0.0813 2.40523,-0.14105 0,6.0658 0,11.91711 0,18.66986 -7.27526,-0.47852 -14.3197,-0.86694 -21.35063,-1.42554 -6.95618,-0.55267 -13.88884,-1.44806 -20.85164,-1.84948 -3.18677,-0.18372 -4.4713,-1.33271 -4.4316,-4.49512 0.0949,-7.55622 0.0306,-15.11444 0.0306,-22.64807 4.30839,2.11004 8.72366,4.2724 12.98513,6.35943 -0.44009,1.29059 -0.89454,2.62336 -1.34899,3.95606 2.30929,0.65045 4.61857,1.30096 7.35229,1.95031 z"
   id="path92" />
<path
   fill="#958789"
   opacity="1"
   stroke="none"
   d="m 72.076134,896.1029 c -0.728287,-1.5418 -1.921242,-3.03167 -2.099945,-4.6347 -0.597618,-5.36102 -0.832482,-10.76245 -1.289955,-17.35394 4.348297,2.25537 7.457656,4.02069 10.693099,5.51257 5.692269,2.62482 11.644959,4.10614 17.828164,2.11652 1.710884,-0.55054 3.055883,-2.2381 4.568763,-3.404 -1.33271,-0.98956 -2.580909,-2.13018 -4.017662,-2.93377 -2.24366,-1.25513 -4.615066,-2.28192 -7.704391,-3.77966 6.869324,-2.90461 12.681043,-5.36206 19.293773,-8.15815 -0.6094,10.14728 -1.1251,20.00391 -1.90959,29.83911 -0.0787,0.9867 -1.78725,1.84327 -3.6026,2.76593 -11.162015,0.0139 -21.460836,0.022 -31.759656,0.0301 z"
   id="path93" />
<path
   fill="#97898a"
   opacity="1"
   stroke="none"
   d="m 897.74365,722.79602 c -2.07178,1.66193 -3.87445,3.08838 -6.09759,4.84753 -11.35895,-12.0166 -18.74341,-26.2561 -26.78351,-40.25048 15.08215,9.2965 31.57635,13.97595 50.66119,15.63507 -6.52868,7.28235 -12.01983,13.40741 -17.78009,19.76788 z"
   id="path94" />
<path
   fill="#978889"
   opacity="1"
   stroke="none"
   d="m 750.72644,752.27063 c -5.78247,-7.91657 -11.33136,-15.56647 -16.88019,-23.21637 0.31653,-0.43164 0.63306,-0.86328 0.94965,-1.29492 1.85535,0.69836 3.69568,1.44031 5.56878,2.08722 6.4383,2.22369 12.85645,4.51556 19.35779,6.53912 1.45569,0.45294 3.38324,0.33789 4.81147,-0.22778 7.58367,-3.00379 15.07745,-6.23438 22.94598,-8.8487 -6.95044,13.82154 -17.80335,23.58417 -30.58521,31.96302 -2.22277,-2.52253 -4.07867,-4.62867 -6.16827,-7.00159 z"
   id="path95" />
<path
   fill="#97898a"
   opacity="1"
   stroke="none"
   d="m 538.22437,746.75623 c 5.9049,2.734 11.83996,5.17987 18.93286,2.08038 -0.87415,-1.71106 -1.56897,-3.07111 -1.99585,-3.90668 7.68499,-1.04797 15.47003,-2.10962 23.8078,-3.24664 -5.88636,11.98199 -13.39411,22.79315 -24.26636,33.20325 -5.84345,-9.29352 -11.36633,-18.07728 -16.82855,-27.34723 0.0607,-0.48627 0.3501,-0.78308 0.3501,-0.78308 z"
   id="path96" />
<path
   fill="#968889"
   opacity="1"
   stroke="none"
   d="m 289.12149,909.81329 c -5.797,-0.28259 -11.59164,-0.68011 -17.392,-0.80023 -2.9812,-0.0618 -3.63769,-1.66504 -3.63061,-4.14264 0.0193,-6.7738 0.007,-13.54767 0.007,-20.31524 4.41107,2.11804 9.11294,4.37561 13.39004,6.42932 -0.85275,2.00293 -1.57321,3.69513 -2.29364,5.38739 1.79853,0.56207 3.63559,1.6922 5.38794,1.57324 4.24936,-0.28833 8.45926,-1.15802 13.3143,-1.5315 1.0434,3.90442 1.85105,7.5824 1.52756,11.15815 -0.062,0.68499 -4.12814,1.18524 -6.58303,1.67889 -1.10096,0.22144 -2.57691,0.7649 -3.72721,0.56262 z"
   id="path97"
   sodipodi:nodetypes="csscccscssc" />

<path
   fill="#97898a"
   opacity="1"
   stroke="none"
   d="m 150.06038,816.91571 c -2.13269,-3.54968 -4.07697,-6.79407 -6.4881,-10.81756 9.51459,2.13195 17.93857,6.05889 28.04272,4.15759 -1.45736,-1.79651 -2.22526,-2.74305 -3.10768,-3.83075 3.40674,-0.84558 6.5681,-1.63025 9.72948,-2.41498 0.30051,0.30328 0.60101,0.60657 0.90152,0.90991 -6.20581,7.56201 -12.41162,15.12402 -19.32982,23.55414 -3.66153,-4.31012 -6.61061,-7.78162 -9.74812,-11.55835 z"
   id="path99" />
<path
   fill="#97898a"
   opacity="1"
   stroke="none"
   d="m 87.406837,772.80115 c 5.388093,-1.54059 10.669129,-2.73529 15.950163,-3.93006 0.32278,0.36145 0.64556,0.7229 0.96833,1.08429 -6.276174,8.30915 -12.552343,16.61829 -19.48174,25.79224 -3.448746,-6.16345 -6.432923,-11.49658 -9.417092,-16.82977 0.299553,-0.32935 0.599106,-0.65876 0.898659,-0.98816 2.637238,0.70465 5.238815,1.66449 7.922127,2.03943 2.496704,0.34875 5.080444,0.0745 8.746292,0.0745 -2.606476,-3.1571 -4.150131,-5.02685 -5.586739,-7.24249 z"
   id="path100" />
<path
   fill="#97898a"
   opacity="1"
   stroke="none"
   d="m 489.39053,830.36591 c -5.01599,5.76013 -9.81823,11.23242 -15.15847,17.31787 -4.24286,-5.58301 -8.09116,-10.64691 -12.44635,-16.37775 7.16238,0.73297 13.32351,1.36353 19.48462,1.99402 0.15789,-0.53223 0.31579,-1.06439 0.47366,-1.59656 -0.84836,-1.22559 -1.69672,-2.45123 -2.79026,-4.031 4.60282,-1.20246 8.99762,-2.35065 14.59928,-3.81415 -1.65427,2.60577 -2.80148,4.41278 -4.16248,6.50757 z"
   id="path101" />
<path
   fill="#968889"
   opacity="1"
   stroke="none"
   d="m 569.60071,793.66693 c -3.18347,5.18097 -6.18415,10.04718 -9.79767,15.90717 -3.32916,-5.04493 -5.90296,-8.94526 -8.84015,-13.39624 6.98554,-2.1366 13.09973,-4.00666 19.79382,-6.05414 -0.39178,1.2995 -0.68255,2.26397 -1.156,3.54321 z"
   id="path102" />
<path
   fill="#97898a"
   opacity="1"
   stroke="none"
   d="m 665.57666,780.61157 c -4.46277,-3.10541 -8.64038,-6.42663 -13.41888,-10.22558 8.20459,-1.73316 15.20831,-3.21265 23.03356,-4.86567 -3.27154,5.21637 -6.30053,10.04596 -9.61468,15.09125 z"
   id="path103" />
<path
   fill="#97898a"
   opacity="1"
   stroke="none"
   d="m 222.04208,842.9032 c -1.13899,-1.82727 -2.07736,-3.35553 -3.36445,-5.45178 7.07397,0.7965 13.46333,1.51586 20.7706,2.33862 -3.35768,3.94891 -6.49005,7.63287 -9.98217,11.73993 -2.69862,-3.11121 -4.96099,-5.71948 -7.42398,-8.62677 z"
   id="path104" />
<path
   fill="#97898a"
   opacity="1"
   stroke="none"
   d="m 649.85046,798.87164 c -1.80603,1.90137 -3.1853,2.84149 -4.83752,0.18152 -2.1565,-3.47186 -4.57806,-6.77917 -7.54346,-11.12042 7.34021,1.13348 13.51221,2.08655 20.784,3.20947 -3.15473,2.90729 -5.64508,5.20233 -8.40302,7.72943 z"
   id="path105" />
<path
   fill="#AB9A99"
   opacity="1"
   stroke="none"
   d="m 853.27393,863.02839 c 1.46793,-2.6829 1.09675,5.52788 11.67981,5.98394 17.82403,0.98022 35.64416,2.03149 53.4635,3.09393 0.41803,0.0249 0.80963,0.49311 1.33349,1.09198 -1.94189,0.17877 -4.00366,0.02 -6.90808,-0.13391 -19.82397,-0.987 -38.80536,-1.97876 -57.7868,-2.97058 -0.5824,-2.08771 -1.20783,-4.60907 -1.78192,-7.06536 z"
   id="path106"
   style="fill:#958788;fill-opacity:1"
   sodipodi:nodetypes="csscccc" />
<path
   fill="#97898a"
   opacity="1"
   stroke="none"
   d="m 882.34522,764.6344 c 5.24658,1.9364 10.49316,3.8728 16.38,6.04553 -2.17847,3.24475 -3.97858,5.92597 -6.27118,9.34076 -3.75226,-5.16546 -7.04626,-9.70001 -10.35889,-14.67145 -0.0186,-0.43689 0.25007,-0.71484 0.25007,-0.71484 z"
   id="path107" />
<path
   fill="#323a39"
   opacity="1"
   stroke="none"
   d="m 855.3335,870.35669 c 18.70379,0.72888 37.68518,1.72064 57.11548,2.76514 -4.1377,0.30944 -8.73835,0.92859 -13.30787,0.75048 -10.91711,-0.42559 -21.82367,-1.16766 -32.72577,-1.91015 -3.61511,-0.24622 -7.20349,-0.88385 -11.08184,-1.60547 z"
   id="path108" />
<path
   fill="#323a39"
   opacity="1"
   stroke="none"
   d="m 738.13257,870.48712 c 3.28406,-0.42584 6.65881,-0.47784 10.84344,-0.53625 1.51581,-0.0494 2.22162,-0.0925 2.92749,-0.13556 0.47809,0.0399 0.95618,0.0797 2.23151,0.1062 7.24121,-0.21521 13.68506,-0.41705 20.12897,-0.6189 -1.10675,0.5586 -2.19306,1.55408 -3.32361,1.60718 -9.72504,0.45715 -19.45703,0.78613 -29.19006,1.02667 -1.16608,0.0289 -2.3509,-0.69861 -3.61774,-1.44934 z"
   id="path109" />
<path
   fill="#998a8b"
   opacity="1"
   stroke="none"
   d="m 908.03772,742.70276 c -2.14826,-1.37097 -3.95154,-2.71765 -6.29169,-4.46539 4.34827,-1.39679 7.99488,-2.56818 13.11811,-4.21387 -2.71375,3.6441 -4.5976,6.17377 -6.82642,8.67926 z"
   id="path110" />
<path
   fill="#AB9A99"
   opacity="1"
   stroke="none"
   d="m 774.6048,869.22473 c -6.78473,0.27973 -13.22858,0.48157 -20.1142,0.63336 0.57825,-0.64611 1.59479,-1.75226 2.61884,-1.75915 10.23071,-0.0696 20.46277,0.0418 30.33813,0.46698 -2.69147,0.43542 -5.02673,0.50616 -7.36194,0.57696 -1.71332,10e-4 -3.42669,0.003 -5.48083,0.0819 z"
   id="path111"
   style="fill:#968789;fill-opacity:1" />
<path
   fill="#998a8b"
   opacity="1"
   stroke="none"
   d="m 757.69763,788.63538 c -2.0758,2.36187 -4.19476,4.35357 -6.70685,6.71484 -1.61517,-1.97467 -2.88226,-3.5238 -4.77887,-5.84259 4.4643,-0.48474 7.95349,-0.86359 11.48572,-0.87225 z"
   id="path112" />
<path
   fill="#323a39"
   opacity="1"
   stroke="none"
   d="m 810.68518,848.79504 c -0.093,-12.83758 0.17389,-25.78967 0.48071,-39.19604 0.30585,1.94873 0.77832,4.34991 0.80109,6.75531 0.0874,9.23553 0.0738,18.47284 -0.015,27.70837 -0.0148,1.54206 -0.59039,3.07874 -1.26678,4.73236 z"
   id="path113" />

<path
   fill="#ab9a99"
   opacity="1"
   stroke="none"
   d="m 319.5705,910.8656 c 0.47064,-0.32367 -1.8953,-1.47512 -0.96922,-1.47115 13.46393,0.0582 34.61046,-0.88768 47.50471,1.39127 -13.98382,0.28223 -31.78684,0.11296 -46.53549,0.0799 z"
   id="path115"
   sodipodi:nodetypes="cccc"
   style="fill:#9a8b8c;fill-opacity:1" />
<path
   fill="#9a8b8c"
   opacity="1"
   stroke="none"
   d="m 482.1691,868.15417 c -1.24671,1.33875 -2.25382,2.42798 -3.65537,3.94385 -1.41845,-1.84222 -2.66989,-3.46747 -4.16287,-5.40643 3.92294,-1.0968 7.4585,-2.08533 12.32379,-3.44562 -1.96213,2.14276 -3.11407,3.4007 -4.50555,4.9082 z"
   id="path116" />
<path
   fill="#ab9a99"
   opacity="1"
   stroke="none"
   d="m 461.70441,903.22168 c -0.73487,-0.37762 -1.03247,-0.75452 -1.33011,-1.13135 9.9938,-0.91589 19.98764,-1.83178 30.25564,-2.49023 -9.31332,1.37915 -18.90078,2.50079 -28.92553,3.62158 z"
   id="path117" />

<path
   fill="#323a39"
   opacity="1"
   stroke="none"
   d="m 590.60107,872.82398 c -0.0835,-8.52692 0.20398,-17.15833 0.53589,-26.24524 -0.0254,8.40991 -0.0952,17.27532 -0.53589,26.24524 z"
   id="path119" />
<path
   fill="#9a8b8c"
   opacity="1"
   stroke="none"
   d="m 160.5809,847.16736 c 1.27161,0.38068 2.17836,0.70538 3.61723,1.22064 -1.77297,1.68854 -3.25463,3.09967 -5.11399,4.87048 -1.56722,-2.32025 -2.87107,-4.25055 -4.62429,-6.84613 2.57372,0.31256 4.16497,0.50574 6.12105,0.75501 z"
   id="path120" />
<path
   fill="#323a39"
   opacity="1"
   stroke="none"
   d="m 72.379089,896.3761 c 9.995865,-0.28131 20.294686,-0.28943 31.050451,-0.25098 -4.4652,0.32636 -9.385061,0.77374 -14.310125,0.84113 -5.476661,0.075 -10.958046,-0.19635 -16.740326,-0.59015 z"
   id="path121" />
<path
   fill="#ab9a99"
   opacity="1"
   stroke="none"
   d="m 574.48517,886.68011 c 2.37146,-0.85406 5.15307,-2.45831 7.89862,-2.39886 4.95459,0.1073 6.25983,-2.04968 5.73358,-6.42059 -0.0582,-0.48346 0.58374,-1.05127 1.25781,-1.67951 0.0381,2.65863 -0.28064,5.41681 -0.61859,8.34107 -4.79547,0.74554 -9.33648,1.45153 -14.27142,2.15789 z"
   id="path122" />
<path
   fill="#AB9A99"
   opacity="1"
   stroke="none"
   d="m 289.57361,909.85364 c 0.63931,-0.30902 1.72281,-0.61701 2.82376,-0.83844 2.45489,-0.49366 6.97239,-0.75842 7.03436,-1.44342 0.22241,-2.45842 -3.94737,-11.07419 -8.34825,-10.27576 -1.2427,0.22546 6.64532,-1.26201 7.97692,-1.70185 -0.59693,0.0597 0.43759,-0.17272 1.65914,-0.73309 v 15.03284 c -3.58557,0 -7.13968,0 -11.14593,-0.0403 z"
   id="path123"
   style="fill:#968889;fill-opacity:1"
   sodipodi:nodetypes="csssccccc" />
<path
   fill="#323a39"
   opacity="1"
   stroke="none"
   d="m 780.39697,869.40387 c 2.02387,-0.33179 4.35913,-0.40253 7.13025,-0.52789 6.80066,-0.0536 13.16547,-0.0526 19.99561,-0.11695 -0.36164,0.36695 -1.18915,1.17493 -2.01545,1.17359 -8.26647,-0.0129 -16.53271,-0.15918 -25.11041,-0.52875 z"
   id="path124" />
<path
   fill="#323a39"
   opacity="1"
   stroke="none"
   d="m 5.426629,898.42322 c 5.00283,-0.58624 10.316115,-0.91822 16.063094,-1.21216 -0.568924,0.61633 -1.561809,1.6701 -2.575846,1.69086 -4.388894,0.0899 -8.783967,-0.12214 -13.487248,-0.4787 z"
   id="path125" />
<path
   fill="#323a39"
   opacity="1"
   stroke="none"
   d="m 25.399538,897.40399 c 6.096098,-0.48456 12.497679,-0.70233 19.324057,-0.86542 0.291771,0.5232 0.156028,1.40223 0.02611,1.40137 -6.348549,-0.0421 -12.69659,-0.15985 -19.350172,-0.53595 z"
   id="path126" />
<path
   fill="#ab9a99"
   opacity="1"
   stroke="none"
   d="m 22.466707,848.94116 c -2.851194,3.2898 -6.459385,1.08679 -10.219553,0.2688 3.092983,-0.27429 6.430763,-0.26062 10.219553,-0.2688 z"
   id="path127" />




<path
   fill="#9a8b8c"
   opacity="1"
   stroke="none"
   d="m 36.347103,817.03809 c -0.298584,-0.667 -0.340034,-1.54279 -0.406044,-2.85798 0.824753,-0.86956 1.674065,-1.2998 3.949818,-2.45263 -1.626587,2.52496 -2.456616,3.81341 -3.543774,5.31061 z"
   id="path132" />



<path
   fill="#9a8b8c"
   opacity="1"
   stroke="none"
   d="m 28.621857,815.03784 c -0.580078,0.2533 -1.533512,0.49481 -2.548092,0.42236 0.684149,-0.354 1.429441,-0.3941 2.548092,-0.42236 z"
   id="path136" />
<path
   fill="#9a8b8c"
   opacity="1"
   stroke="none"
   d="m 978.96558,744.37598 c 0.61651,0.45733 1.30712,1.21765 1.98352,2.34143 -0.64594,-0.4372 -1.27765,-1.23786 -1.98352,-2.34143 z"
   id="path137" />


<path
   fill="#9a8b8c"
   opacity="1"
   stroke="none"
   d="M 1011.0681,779.34595 C 0,0 0,0 1011.0681,779.34595 Z"
   id="path140"
   sodipodi:nodetypes="cc" />
<path
   fill="#232927"
   opacity="1"
   stroke="none"
   d="M 889.11487,629.16785 C 0,0 0,0 889.11487,629.16785 Z"
   id="path141"
   sodipodi:nodetypes="cc" />





<path
   fill="#ab9a99"
   opacity="1"
   stroke="none"
   d="m 15.332132,839.10449 c 0.162143,-0.3725 0.629344,-0.71264 1.402193,-1.07129 -0.161945,0.35559 -0.629539,0.72968 -1.402193,1.07129 z"
   id="path147" />



<path
   fill="#9a8b8c"
   opacity="1"
   stroke="none"
   d="M 1013.9902,781.32105 C 0,0 0,0 1013.9902,781.32105 Z"
   id="path151"
   sodipodi:nodetypes="cc" />

<path
   fill="#ab9a99"
   opacity="1"
   stroke="none"
   d="m 20.260811,834.9834 c -0.04948,-0.18292 0.147503,-0.46546 0.582989,-0.85791 0.04683,0.17938 -0.14485,0.46887 -0.582989,0.85791 z"
   id="path153" />

<path
   fill="#ab9a99"
   opacity="1"
   stroke="none"
   d="m 12.276381,842.08289 c -0.0632,-0.18158 0.119427,-0.49634 0.549152,-0.93689 0.06362,0.18408 -0.119852,0.49389 -0.549152,0.93689 z"
   id="path155" />
<path
   fill="#ab9a99"
   opacity="1"
   stroke="none"
   d="m 19.239477,835.94556 c -0.03118,-0.16077 0.171177,-0.43482 0.607018,-0.82141 0.03116,0.16094 -0.171164,0.43451 -0.607018,0.82141 z"
   id="path156" />
<path
   fill="#ab9a99"
   opacity="1"
   stroke="none"
   d="m 21.265009,833.98163 c -0.04572,-0.18299 0.157759,-0.46662 0.604113,-0.86066 0.04361,0.17975 -0.15565,0.46991 -0.604113,0.86066 z"
   id="path157" />
<path
   fill="#ab9a99"
   opacity="1"
   stroke="none"
   d="m 18.239243,836.95471 c -0.0335,-0.15881 0.161502,-0.43744 0.588035,-0.83282 0.03451,0.15985 -0.162506,0.43646 -0.588035,0.83282 z"
   id="path158" />
<path
   fill="#ab9a99"
   opacity="1"
   stroke="none"
   d="m 17.233932,837.92688 c -0.02879,-0.15851 0.171498,-0.43054 0.606185,-0.80963 0.03056,0.16064 -0.17327,0.4284 -0.606185,0.80963 z"
   id="path159" />
<path
   fill="#ab9a99"
   opacity="1"
   stroke="none"
   d="m 14.313717,840.03149 c -0.09347,-0.23602 0.09639,-0.51117 0.518337,-0.89154 0.07639,0.21393 -0.07931,0.53321 -0.518337,0.89154 z"
   id="path160" />
<path
   fill="#ab9a99"
   opacity="1"
   stroke="none"
   d="m 13.294317,841.0119 c -0.07765,-0.21277 0.114274,-0.49048 0.540192,-0.87542 0.06579,0.19866 -0.102412,0.50463 -0.540192,0.87542 z"
   id="path161" />
<path
   fill="#ab9a99"
   opacity="1"
   stroke="none"
   d="m 9.731142,846.69537 c -0.2067,0.0975 -0.407186,-0.0737 -0.641131,-0.49163 0.178096,-0.0839 0.405032,0.0726 0.641131,0.49163 z"
   id="path162" />
<path
   fill="#ab9a99"
   opacity="1"
   stroke="none"
   d="m 12.000675,848.75488 c -0.212863,0.15082 -0.462497,0.0152 -0.787853,-0.3717 0.212989,-0.19483 0.488591,-0.0827 0.787853,0.3717 z"
   id="path163" />



<path
   fill="#232927"
   opacity="1"
   stroke="none"
   d="M 888.15118,628.07159 C 0,0 0,0 888.15118,628.07159 Z"
   id="path167"
   sodipodi:nodetypes="cc"
   inkscape:label="path167" />










<path
   fill="#9a8b8c"
   opacity="1"
   stroke="none"
   d="M 183.28719,772.99573 C 0,0 0,0 183.28719,772.99573 Z"
   id="path178"
   sodipodi:nodetypes="cc"
   inkscape:label="path178" />

<path
   fill="#9a8b8c"
   opacity="1"
   stroke="none"
   d="m 140.89304,770.09143 c -0.15235,-0.13159 -0.23131,-0.33203 -0.31028,-0.53253 0.1115,0.0256 0.22301,0.0511 0.42847,0.1972 0.0939,0.12061 -0.0448,0.26648 -0.11819,0.33533 z"
   id="path180" />
<path
   fill="#97898a"
   opacity="1"
   stroke="none"
   d="m 881.93884,765.04791 c -0.31036,-0.0859 -0.48303,-0.30737 -0.65564,-0.52881 0.24597,-0.0602 0.49195,-0.12036 0.89997,-0.0326 0.16205,0.14795 -0.10663,0.4259 -0.24433,0.56146 z"
   id="path181" />


<path
   fill="#9a8b8c"
   opacity="1"
   stroke="none"
   d="m 981.00848,747.29907 c 0.19196,-0.0239 0.4773,0.21875 0.83863,0.74127 -0.19782,0.0283 -0.4715,-0.2232 -0.83863,-0.74127 z"
   id="path184" />
<path
   fill="#97898a"
   opacity="1"
   stroke="none"
   d="m 537.78674,747.198 c -0.0494,-0.15534 0.0494,-0.45569 0.29285,-0.59888 0.14478,0.15711 -0.14465,0.45392 -0.29285,0.59888 z"
   id="path185" />
<path
   fill="#9a8b8c"
   opacity="1"
   stroke="none"
   d="m 978.0498,743.25092 c 0.17469,-0.0391 0.44031,0.16333 0.80835,0.59893 -0.17083,0.0363 -0.44409,-0.16058 -0.80835,-0.59893 z"
   id="path186" />
<path
   fill="#9a8b8c"
   opacity="1"
   stroke="none"
   d="m 976.10022,740.2522 c 0.16675,-0.002 0.42615,0.24951 0.7572,0.77026 -0.1737,0.007 -0.41913,-0.25464 -0.7572,-0.77026 z"
   id="path187"
   sodipodi:nodetypes="ccc" />


<path
   fill="#9a8b8c"
   opacity="1"
   stroke="none"
   d="m 682.79004,716.77161 c 0.16119,-0.0547 0.47815,0.0522 0.63592,0.31732 -0.15924,0.15832 -0.48004,-0.15576 -0.63592,-0.31732 z"
   id="path190" />
<path
   fill="#9a8b8c"
   opacity="1"
   stroke="none"
   d="m 622.93774,698.04687 c -0.0593,-0.1419 0.0267,-0.427 0.2685,-0.57641 0.15576,0.13574 -0.12323,0.43329 -0.2685,0.57641 z"
   id="path191" />
<path
   fill="#444f4d"
   opacity="1"
   stroke="none"
   d="M 218.2081,776.39307 C 0,0 0,0 218.2081,776.39307 Z"
   id="path192"
   sodipodi:nodetypes="cc"
   inkscape:label="path192" />







<path
   fill="#444f4d"
   opacity="1"
   stroke="none"
   d="M 228.08783,801.04968 C 0,0 0,0 228.08783,801.04968 Z"
   id="path200"
   sodipodi:nodetypes="cc" />


<path
   fill="#978889"
   opacity="1"
   stroke="none"
   d="m 9.436971,832.63623 c -0.109286,0.42004 -0.376549,0.6745 -0.643815,0.92896 -0.105272,-0.11066 -0.210538,-0.22132 -0.315806,-0.33198 0.267213,-0.25421 0.534428,-0.50836 0.959621,-0.59698 z"
   id="path203" />










<path
   fill="#444f4d"
   opacity="1"
   stroke="none"
   d="M 219.1685,788.828 C 0,0 0,0 219.1685,788.828 Z"
   id="path214"
   sodipodi:nodetypes="cc" />


<path
   fill="#444f4d"
   opacity="1"
   stroke="none"
   d="m 210.98367,775.69641 c -0.18782,0.0141 -0.47242,-0.23968 -0.82776,-0.78125 0.19649,-0.0208 0.46372,0.24628 0.82776,0.78125 z"
   id="path217" />




<path
   fill="#444f4d"
   opacity="1"
   stroke="none"
   d="m 211.91479,776.76062 c -0.24015,0.11835 -0.49464,-0.0879 -0.77706,-0.60931 0.16658,-0.03 0.43014,0.17004 0.77706,0.60931 z"
   id="path222"
   inkscape:label="path222" />





<path
   fill="#ab9a99"
   opacity="1"
   stroke="none"
   d="m 751.71582,869.60992 c -0.51819,0.24848 -1.224,0.29151 -2.28021,0.28095 0.46399,-0.19788 1.27826,-0.3421 2.28021,-0.28095 z"
   id="path228" />


<path
   fill="#444f4d"
   opacity="1"
   stroke="none"
   d="m 199.47578,763.461 c 0.0452,-0.0248 -0.0452,0.0248 0,0 z"
   id="path231" />
</svg>
